<svg xmlns="http://www.w3.org/2000/svg" xmlns:xlink="http://www.w3.org/1999/xlink" width="1080" zoomAndPan="magnify" viewBox="0 0 810 809.999993" height="1080" preserveAspectRatio="xMidYMid meet" version="1.0"><path fill="#ff769d" d="M 551.8125 567 C 258.1875 567 258.1875 567 258.1875 567 C 249.328125 567 243 560.671875 243 551.8125 C 243 258.1875 243 258.1875 243 258.1875 C 243 249.328125 249.328125 243 258.1875 243 C 551.8125 243 551.8125 243 551.8125 243 C 560.671875 243 567 249.328125 567 258.1875 C 567 551.8125 567 551.8125 567 551.8125 C 567 560.671875 560.671875 567 551.8125 567 M 536.625 273.375 C 273.375 273.375 273.375 273.375 273.375 273.375 C 273.375 536.625 273.375 536.625 273.375 536.625 C 536.625 536.625 536.625 536.625 536.625 536.625 Z M 334.125 349.3125 C 334.125 340.453125 340.453125 334.125 349.3125 334.125 C 353.109375 334.125 356.90625 335.390625 359.4375 339.1875 C 405 383.484375 405 383.484375 405 383.484375 C 450.5625 339.1875 450.5625 339.1875 450.5625 339.1875 C 453.09375 335.390625 456.890625 334.125 460.6875 334.125 C 469.546875 334.125 475.875 340.453125 475.875 349.3125 C 475.875 353.109375 474.609375 356.90625 470.8125 359.4375 C 426.515625 405 426.515625 405 426.515625 405 C 470.8125 450.5625 470.8125 450.5625 470.8125 450.5625 C 474.609375 453.09375 475.875 456.890625 475.875 460.6875 C 475.875 469.546875 469.546875 475.875 460.6875 475.875 C 456.890625 475.875 453.09375 474.609375 450.5625 470.8125 C 405 426.515625 405 426.515625 405 426.515625 C 359.4375 470.8125 359.4375 470.8125 359.4375 470.8125 C 356.90625 474.609375 353.109375 475.875 349.3125 475.875 C 340.453125 475.875 334.125 469.546875 334.125 460.6875 C 334.125 456.890625 335.390625 453.09375 339.1875 450.5625 C 383.484375 405 383.484375 405 383.484375 405 C 339.1875 359.4375 339.1875 359.4375 339.1875 359.4375 C 335.390625 356.90625 334.125 353.109375 334.125 349.3125 " fill-opacity="1" fill-rule="evenodd"/></svg>