<svg xmlns="http://www.w3.org/2000/svg" xmlns:xlink="http://www.w3.org/1999/xlink" width="1080" zoomAndPan="magnify" viewBox="0 0 810 809.999993" height="1080" preserveAspectRatio="xMidYMid meet" version="1.0"><defs><clipPath id="e321c41f84"><path d="M 246 261.867188 L 565 261.867188 L 565 548 L 246 548 Z M 246 261.867188 " clip-rule="nonzero"/></clipPath></defs><g clip-path="url(#e321c41f84)"><path fill="#e01073" d="M 364.402344 416.035156 C 357.007812 410.253906 349.703125 404.382812 342.238281 398.726562 C 318.964844 380.992188 298.03125 360.828125 279.4375 338.242188 C 268.523438 325.050781 261.566406 310.363281 263.683594 292.457031 C 263.839844 290.667969 264.167969 288.910156 264.667969 287.1875 C 265.164062 285.460938 265.824219 283.796875 266.640625 282.199219 C 267.460938 280.601562 268.425781 279.097656 269.535156 277.683594 C 270.644531 276.273438 271.882812 274.980469 273.242188 273.804688 C 281.789062 266.34375 291.648438 261.980469 303.171875 261.964844 C 312.476562 261.972656 321.660156 263.023438 330.726562 265.121094 C 339.789062 267.222656 348.5 270.316406 356.859375 274.402344 C 383.976562 287.421875 407.882812 305.488281 432.054688 322.898438 C 474.527344 353.597656 512.386719 389.5 548.863281 426.929688 C 552.023438 430.171875 555.347656 433.269531 558.65625 436.367188 C 566.296875 443.554688 566.582031 449.585938 558.320312 456.148438 C 550.058594 462.714844 541.558594 469.378906 532.1875 474.132812 C 511.339844 484.75 490.34375 495.371094 468.578125 503.835938 C 437.9375 515.761719 406.554688 525.75 375.464844 536.515625 C 357.519531 542.734375 339.164062 546.949219 320.070312 547.707031 C 311.714844 548.0625 303.441406 547.382812 295.253906 545.667969 C 287.070312 543.953125 279.21875 541.253906 271.710938 537.574219 C 267.273438 535.421875 263.175781 532.753906 259.414062 529.566406 C 247.652344 519.53125 243.585938 507.28125 248.375 492 C 253.617188 475.261719 264.144531 462.964844 278.242188 453.226562 C 292.707031 443.28125 308.636719 436.652344 325.609375 431.988281 C 338.589844 428.433594 351.171875 423.421875 363.929688 419.058594 Z M 364.402344 416.035156 " fill-opacity="1" fill-rule="nonzero"/></g></svg>