<svg xmlns="http://www.w3.org/2000/svg" xmlns:xlink="http://www.w3.org/1999/xlink" width="1080" zoomAndPan="magnify" viewBox="0 0 810 809.999993" height="1080" preserveAspectRatio="xMidYMid meet" version="1.0"><defs><clipPath id="e09da79845"><path d="M 313 198.199219 L 470 198.199219 L 470 287 L 313 287 Z M 313 198.199219 " clip-rule="nonzero"/></clipPath><clipPath id="3bd56af57b"><path d="M 130.164062 253.339844 L 650.664062 253.339844 L 650.664062 611.398438 L 130.164062 611.398438 Z M 130.164062 253.339844 " clip-rule="nonzero"/></clipPath></defs><g clip-path="url(#e09da79845)"><path fill="#bfd8ee" d="M 469.199219 286.242188 L 313.871094 286.242188 L 329.667969 210.757812 C 331.191406 203.46875 337.628906 198.242188 345.089844 198.242188 L 437.980469 198.242188 C 445.4375 198.242188 451.878906 203.46875 453.402344 210.757812 L 469.199219 286.242188 " fill-opacity="1" fill-rule="nonzero"/></g><path fill="#c97c7e" d="M 265.328125 286.242188 L 238.445312 286.242188 C 226.074219 286.242188 216.042969 276.226562 216.042969 263.871094 L 216.042969 251.191406 C 216.042969 238.835938 226.074219 228.820312 238.445312 228.820312 L 265.328125 228.820312 C 277.703125 228.820312 287.734375 238.835938 287.734375 251.191406 L 287.734375 263.871094 C 287.734375 276.226562 277.703125 286.242188 265.328125 286.242188 " fill-opacity="1" fill-rule="nonzero"/><g clip-path="url(#3bd56af57b)"><path fill="#feccd5" d="M 590.921875 611.398438 L 189.90625 611.398438 C 156.910156 611.398438 130.164062 584.683594 130.164062 551.734375 L 130.164062 313.089844 C 130.164062 280.140625 156.910156 253.429688 189.90625 253.429688 L 590.921875 253.429688 C 623.914062 253.429688 650.664062 280.140625 650.664062 313.089844 L 650.664062 551.734375 C 650.664062 584.683594 623.914062 611.398438 590.921875 611.398438 " fill-opacity="1" fill-rule="nonzero"/></g><path fill="#4a4c59" d="M 421.402344 233.292969 L 355.6875 233.292969 C 350.351562 233.292969 345.980469 228.929688 345.980469 223.597656 C 345.980469 218.265625 350.351562 213.90625 355.6875 213.90625 L 421.402344 213.90625 C 426.746094 213.90625 431.113281 218.265625 431.113281 223.597656 C 431.113281 228.929688 426.746094 233.292969 421.402344 233.292969 " fill-opacity="1" fill-rule="nonzero"/><path fill="#feca7f" d="M 605.855469 310.109375 L 546.863281 310.109375 C 540.292969 310.109375 534.914062 304.738281 534.914062 298.175781 C 534.914062 291.613281 540.292969 286.242188 546.863281 286.242188 L 605.855469 286.242188 C 612.429688 286.242188 617.804688 291.613281 617.804688 298.175781 C 617.804688 304.738281 612.429688 310.109375 605.855469 310.109375 " fill-opacity="1" fill-rule="nonzero"/><path fill="#dbedf9" d="M 221.269531 296.683594 C 221.269531 308.628906 212.578125 318.3125 201.855469 318.3125 C 191.128906 318.3125 182.4375 308.628906 182.4375 296.683594 C 182.4375 284.738281 191.128906 275.054688 201.855469 275.054688 C 212.578125 275.054688 221.269531 284.738281 221.269531 296.683594 " fill-opacity="1" fill-rule="nonzero"/><path fill="#7fb3d6" d="M 527.820312 432.277344 C 527.820312 507.652344 466.636719 568.753906 391.160156 568.753906 C 315.6875 568.753906 254.5 507.652344 254.5 432.277344 C 254.5 356.90625 315.6875 295.804688 391.160156 295.804688 C 466.636719 295.804688 527.820312 356.90625 527.820312 432.277344 " fill-opacity="1" fill-rule="nonzero"/><path fill="#dbedf9" d="M 480.296875 432.277344 C 480.296875 481.441406 440.390625 521.296875 391.160156 521.296875 C 341.933594 521.296875 302.023438 481.441406 302.023438 432.277344 C 302.023438 383.117188 341.933594 343.261719 391.160156 343.261719 C 440.390625 343.261719 480.296875 383.117188 480.296875 432.277344 " fill-opacity="1" fill-rule="nonzero"/><path fill="#ffffff" d="M 144.164062 344.414062 C 144.164062 370.929688 144.164062 397.445312 144.164062 423.960938 C 144.164062 427.71875 150.015625 427.726562 150.015625 423.960938 C 150.015625 397.445312 150.015625 370.929688 150.015625 344.414062 C 150.015625 340.65625 144.164062 340.648438 144.164062 344.414062 " fill-opacity="1" fill-rule="nonzero"/><path fill="#ffffff" d="M 144.164062 455.78125 C 144.164062 470.367188 144.164062 484.949219 144.164062 499.53125 C 144.164062 503.292969 150.015625 503.296875 150.015625 499.53125 C 150.015625 484.949219 150.015625 470.367188 150.015625 455.78125 C 150.015625 452.023438 144.164062 452.015625 144.164062 455.78125 " fill-opacity="1" fill-rule="nonzero"/><path fill="#ffffff" d="M 420.269531 364.367188 C 446.828125 373.9375 465.8125 400.699219 466.273438 428.847656 C 466.332031 432.601562 472.183594 432.613281 472.121094 428.847656 C 471.730469 404.902344 459.171875 382.175781 439.859375 368.1875 C 434.328125 364.183594 428.242188 361.046875 421.820312 358.734375 C 418.273438 357.457031 416.746094 363.097656 420.269531 364.367188 " fill-opacity="1" fill-rule="nonzero"/><path fill="#ffffff" d="M 315.761719 444.570312 C 322.832031 473.371094 345.058594 497.386719 373.128906 506.929688 C 376.703125 508.144531 378.234375 502.503906 374.683594 501.296875 C 348.519531 492.398438 327.976562 469.785156 321.402344 443.015625 C 320.507812 439.367188 314.863281 440.910156 315.761719 444.570312 " fill-opacity="1" fill-rule="nonzero"/><path fill="#ffffff" d="M 200.121094 278.15625 C 188.96875 280.59375 181.746094 292.40625 184.125 303.417969 C 184.917969 307.09375 190.558594 305.539062 189.765625 301.867188 C 188.027344 293.824219 193.753906 285.523438 201.675781 283.792969 C 205.351562 282.988281 203.796875 277.355469 200.121094 278.15625 " fill-opacity="1" fill-rule="nonzero"/><path fill="#ffffff" d="M 554.328125 306.566406 C 568.601562 306.566406 582.875 306.566406 597.144531 306.566406 C 600.910156 306.566406 600.914062 300.722656 597.144531 300.722656 C 582.875 300.722656 568.601562 300.722656 554.328125 300.722656 C 550.566406 300.722656 550.5625 306.566406 554.328125 306.566406 " fill-opacity="1" fill-rule="nonzero"/><path fill="#ffffff" d="M 369.132812 231.988281 C 384.398438 231.988281 399.667969 231.988281 414.933594 231.988281 C 418.699219 231.988281 418.703125 226.144531 414.933594 226.144531 C 399.667969 226.144531 384.398438 226.144531 369.132812 226.144531 C 365.367188 226.144531 365.359375 231.988281 369.132812 231.988281 " fill-opacity="1" fill-rule="nonzero"/><path fill="#ffffff" d="M 632.054688 336.457031 C 632.054688 351.707031 632.054688 366.953125 632.054688 382.199219 C 632.054688 385.957031 637.90625 385.964844 637.90625 382.199219 C 637.90625 366.953125 637.90625 351.707031 637.90625 336.457031 C 637.90625 332.699219 632.054688 332.695312 632.054688 336.457031 " fill-opacity="1" fill-rule="nonzero"/><path fill="#ffffff" d="M 632.054688 425.949219 C 632.054688 454.457031 632.054688 482.960938 632.054688 511.46875 C 632.054688 515.222656 637.90625 515.230469 637.90625 511.46875 C 637.90625 482.960938 637.90625 454.457031 637.90625 425.949219 C 637.90625 422.191406 632.054688 422.183594 632.054688 425.949219 " fill-opacity="1" fill-rule="nonzero"/><path fill="#ffffff" d="M 307.582031 332.367188 C 275.171875 360.851562 258.457031 404.519531 263.949219 447.332031 C 265.582031 460.039062 268.992188 472.320312 274.117188 484.066406 C 275.617188 487.503906 280.65625 484.53125 279.167969 481.117188 C 262.203125 442.238281 266.417969 396.589844 289.898438 361.34375 C 296.035156 352.128906 303.402344 343.808594 311.71875 336.496094 C 314.550781 334.007812 310.402344 329.890625 307.582031 332.367188 " fill-opacity="1" fill-rule="nonzero"/></svg>