<svg xmlns="http://www.w3.org/2000/svg" xmlns:xlink="http://www.w3.org/1999/xlink" width="1080" zoomAndPan="magnify" viewBox="0 0 810 809.999993" height="1080" preserveAspectRatio="xMidYMid meet" version="1.0"><defs><clipPath id="357bfdcce7"><path d="M 57 197 L 754.871094 197 L 754.871094 615.699219 L 57 615.699219 Z M 57 197 " clip-rule="nonzero"/></clipPath></defs><g clip-path="url(#357bfdcce7)"><path fill="#fabacf" d="M 61.710938 567.671875 C 61.992188 578.667969 62.53125 590.390625 68.917969 599.34375 C 79.007812 613.460938 99.023438 615.28125 116.382812 615.28125 C 327.007812 615.375 529.117188 615.695312 719.875 611.363281 C 726.523438 611.214844 733.464844 610.492188 739.1875 607.078125 C 750.085938 600.589844 754.171875 581.339844 754.191406 568.667969 C 754.28125 504.308594 753.511719 435.101562 753.363281 370.738281 C 753.273438 321.558594 753.148438 292.375 754.140625 243.125 C 754.691406 216.515625 749.722656 199.800781 724.101562 198.816406 C 673.4375 196.859375 632.023438 197.152344 577.324219 197.972656 C 462.210938 199.707031 326.929688 196.761719 201.773438 199.96875 C 104.699219 202.449219 62.40625 194.207031 58.90625 224.429688 C 55.277344 255.53125 58.859375 330.070312 58.90625 359.71875 C 58.984375 429.046875 59.914062 498.367188 61.710938 567.671875 " fill-opacity="1" fill-rule="nonzero"/></g><path fill="#f35e85" d="M 363.78125 416.363281 C 362.820312 406.535156 364.789062 397.113281 372.328125 390.1875 C 378.414062 384.589844 387.496094 381.832031 395.699219 382.636719 C 405.171875 383.546875 414.476562 394.363281 418.027344 404.675781 C 421.085938 398.558594 427.707031 391.574219 429.332031 390.296875 C 439.421875 382.324219 453.347656 379.324219 464.324219 385.496094 C 490.605469 400.277344 474.980469 434.132812 462.257812 451.765625 C 450.871094 467.546875 425.769531 486.441406 417.160156 486.441406 C 409.875 486.441406 391.390625 470.714844 386.171875 463.910156 C 374.820312 449.140625 365.464844 433.738281 363.78125 416.363281 " fill-opacity="1" fill-rule="nonzero"/><path stroke-linecap="round" transform="matrix(0.0373555, 0, 0, -0.0373472, -65.067152, 739.988839)" fill="none" stroke-linejoin="round" d="M 3617.609141 14000.830355 C 6554.344933 12318.870749 9990.087391 9774.437483 13014.243463 8026.79349 " stroke="#f35e85" stroke-width="216.13" stroke-opacity="1" stroke-miterlimit="10"/><path stroke-linecap="round" transform="matrix(0.0493652, 0, 0, -0.0493543, -65.067152, 739.988839)" fill="none" stroke-linejoin="round" d="M 16299.993487 10594.730105 C 14194.909648 9254.293699 12270.320349 7396.551415 9981.655917 6074.081416 " stroke="#f35e85" stroke-width="163.548996" stroke-opacity="1" stroke-miterlimit="10"/><path stroke-linecap="round" transform="matrix(0.0491262, 0, 0, -0.0491152, -65.067152, 739.988839)" fill="none" stroke-linejoin="round" d="M 16299.962944 2995.437951 C 15158.291521 4392.344008 13624.374302 6364.109833 12550.608394 7813.984429 " stroke="#f35e85" stroke-width="164.341995" stroke-opacity="1" stroke-miterlimit="10"/><path stroke-linecap="round" transform="matrix(0.0373555, 0, 0, -0.0373472, -65.067152, 739.988839)" fill="none" stroke-linejoin="round" d="M 3984.021412 3878.426977 C 5485.537907 5715.707148 8028.045885 8519.426395 9440.887264 10271.463293 " stroke="#f35e85" stroke-width="216.13" stroke-opacity="1" stroke-miterlimit="10"/><path stroke-linecap="round" transform="matrix(0.0373555, 0, 0, -0.0373472, -65.067152, 739.988839)" fill="none" stroke-linejoin="round" d="M 3850.695029 11917.233731 C 3843.479719 11776.242402 3836.264409 11634.832702 3828.63082 11493.841374 " stroke="#f8a1bb" stroke-width="432.26099" stroke-opacity="1" stroke-miterlimit="10"/><path stroke-linecap="round" transform="matrix(0.0373555, 0, 0, -0.0373472, -65.067152, 739.988839)" fill="none" stroke-linejoin="round" d="M 4581.741886 11204.641802 C 4581.741886 11108.416267 4581.741886 11012.086138 4581.741886 10915.860603 " stroke="#f8a1bb" stroke-width="432.26099" stroke-opacity="1" stroke-miterlimit="10"/><path stroke-linecap="round" transform="matrix(0.0373555, 0, 0, -0.0373472, -65.067152, 739.988839)" fill="none" stroke-linejoin="round" d="M 3842.538592 10550.517346 C 3826.121147 10364.655633 3822.774916 10177.643396 3832.813608 9991.467903 " stroke="#f8a1bb" stroke-width="432.26099" stroke-opacity="1" stroke-miterlimit="10"/><path stroke-linecap="round" transform="matrix(0.0476207, 0, 0, -0.0476102, -65.067152, 739.988839)" fill="none" stroke-linejoin="round" d="M 16300.027634 6810.368961 C 16300.027634 6724.876439 16300.027634 6639.055731 16300.027634 6553.645256 " stroke="#f8a1bb" stroke-width="339.08701" stroke-opacity="1" stroke-miterlimit="10"/><path stroke-linecap="round" transform="matrix(0.0489431, 0, 0, -0.0489322, -65.067152, 739.988839)" fill="none" stroke-linejoin="round" d="M 16300.024467 6346.877928 C 16300.024467 6258.745852 16300.024467 6170.454117 16300.024467 6082.162382 " stroke="#f8a1bb" stroke-width="329.91299" stroke-opacity="1" stroke-miterlimit="10"/></svg>