<svg xmlns="http://www.w3.org/2000/svg" xmlns:xlink="http://www.w3.org/1999/xlink" width="1080" zoomAndPan="magnify" viewBox="0 0 810 809.999993" height="1080" preserveAspectRatio="xMidYMid meet" version="1.0"><defs><clipPath id="d4934d34d0"><path d="M 189 307 L 602 307 L 602 605.238281 L 189 605.238281 Z M 189 307 " clip-rule="nonzero"/></clipPath><clipPath id="9d973e8288"><path d="M 467.28125 538.328125 L 476.734375 538.328125 L 476.734375 547.78125 L 467.28125 547.78125 Z M 467.28125 538.328125 " clip-rule="nonzero"/></clipPath><clipPath id="0ceae2a23f"><path d="M 275.917969 502.335938 L 285.367188 502.335938 L 285.367188 511.789062 L 275.917969 511.789062 Z M 275.917969 502.335938 " clip-rule="nonzero"/></clipPath><clipPath id="99ef4771de"><path d="M 229.8125 546.566406 L 239.261719 546.566406 L 239.261719 556.019531 L 229.8125 556.019531 Z M 229.8125 546.566406 " clip-rule="nonzero"/></clipPath><clipPath id="a2215c5106"><path d="M 234.417969 388.691406 L 243.867188 388.691406 L 243.867188 398.144531 L 234.417969 398.144531 Z M 234.417969 388.691406 " clip-rule="nonzero"/></clipPath><clipPath id="f1c551d5a8"><path d="M 246.636719 331.96875 L 256.085938 331.96875 L 256.085938 341.425781 L 246.636719 341.425781 Z M 246.636719 331.96875 " clip-rule="nonzero"/></clipPath><clipPath id="b6553d9f79"><path d="M 352.371094 381.375 L 361.824219 381.375 L 361.824219 390.832031 L 352.371094 390.832031 Z M 352.371094 381.375 " clip-rule="nonzero"/></clipPath><clipPath id="bbc9b0fbdc"><path d="M 334.839844 326.804688 L 344.289062 326.804688 L 344.289062 336.261719 L 334.839844 336.261719 Z M 334.839844 326.804688 " clip-rule="nonzero"/></clipPath><clipPath id="946cbe4f95"><path d="M 291.207031 375.738281 L 300.65625 375.738281 L 300.65625 385.195312 L 291.207031 385.195312 Z M 291.207031 375.738281 " clip-rule="nonzero"/></clipPath><clipPath id="a98ec76709"><path d="M 456.511719 341.769531 L 465.960938 341.769531 L 465.960938 351.222656 L 456.511719 351.222656 Z M 456.511719 341.769531 " clip-rule="nonzero"/></clipPath><clipPath id="e32cfc2bde"><path d="M 556.792969 350.636719 L 566.242188 350.636719 L 566.242188 360.089844 L 556.792969 360.089844 Z M 556.792969 350.636719 " clip-rule="nonzero"/></clipPath><clipPath id="56ccda2bd8"><path d="M 551.628906 405.054688 L 561.078125 405.054688 L 561.078125 414.511719 L 551.628906 414.511719 Z M 551.628906 405.054688 " clip-rule="nonzero"/></clipPath><clipPath id="f23b841a53"><path d="M 449.527344 406.773438 L 458.976562 406.773438 L 458.976562 416.230469 L 449.527344 416.230469 Z M 449.527344 406.773438 " clip-rule="nonzero"/></clipPath><clipPath id="98f59fc5d2"><path d="M 499.214844 376.289062 L 508.664062 376.289062 L 508.664062 385.746094 L 499.214844 385.746094 Z M 499.214844 376.289062 " clip-rule="nonzero"/></clipPath><clipPath id="22d41102d3"><path d="M 499.253906 497.695312 L 508.703125 497.695312 L 508.703125 507.148438 L 499.253906 507.148438 Z M 499.253906 497.695312 " clip-rule="nonzero"/></clipPath><clipPath id="8bc44bc2e2"><path d="M 541.476562 574.972656 L 550.929688 574.972656 L 550.929688 584.429688 L 541.476562 584.429688 Z M 541.476562 574.972656 " clip-rule="nonzero"/></clipPath><clipPath id="0cf88f4f37"><path d="M 431.375 498.035156 L 440.824219 498.035156 L 440.824219 507.492188 L 431.375 507.492188 Z M 431.375 498.035156 " clip-rule="nonzero"/></clipPath><clipPath id="6dcbc82800"><path d="M 443.066406 569.597656 L 452.519531 569.597656 L 452.519531 579.054688 L 443.066406 579.054688 Z M 443.066406 569.597656 " clip-rule="nonzero"/></clipPath><clipPath id="1af7253400"><path d="M 333.511719 496.953125 L 342.960938 496.953125 L 342.960938 506.410156 L 333.511719 506.410156 Z M 333.511719 496.953125 " clip-rule="nonzero"/></clipPath><clipPath id="1406486585"><path d="M 316.160156 568.765625 L 325.613281 568.765625 L 325.613281 578.21875 L 316.160156 578.21875 Z M 316.160156 568.765625 " clip-rule="nonzero"/></clipPath><clipPath id="bdefd12350"><path d="M 200.585938 483.121094 L 210.035156 483.121094 L 210.035156 492.574219 L 200.585938 492.574219 Z M 200.585938 483.121094 " clip-rule="nonzero"/></clipPath><clipPath id="4ad111a7e4"><path d="M 204.769531 575.234375 L 214.21875 575.234375 L 214.21875 584.691406 L 204.769531 584.691406 Z M 204.769531 575.234375 " clip-rule="nonzero"/></clipPath><clipPath id="c78ccbb3a6"><path d="M 537.332031 538.628906 L 546.785156 538.628906 L 546.785156 548.085938 L 537.332031 548.085938 Z M 537.332031 538.628906 " clip-rule="nonzero"/></clipPath><clipPath id="148b2cfe27"><path d="M 226.335938 431.671875 L 235.785156 431.671875 L 235.785156 441.125 L 226.335938 441.125 Z M 226.335938 431.671875 " clip-rule="nonzero"/></clipPath><clipPath id="34a3baaef0"><path d="M 316.664062 439.703125 L 326.113281 439.703125 L 326.113281 449.15625 L 316.664062 449.15625 Z M 316.664062 439.703125 " clip-rule="nonzero"/></clipPath><clipPath id="4484cca99a"><path d="M 386.539062 441.945312 L 395.988281 441.945312 L 395.988281 451.402344 L 386.539062 451.402344 Z M 386.539062 441.945312 " clip-rule="nonzero"/></clipPath><clipPath id="38aa25ee38"><path d="M 450.894531 450.175781 L 460.34375 450.175781 L 460.34375 459.632812 L 450.894531 459.632812 Z M 450.894531 450.175781 " clip-rule="nonzero"/></clipPath><clipPath id="645f2bd89a"><path d="M 523.808594 455.683594 L 533.261719 455.683594 L 533.261719 465.140625 L 523.808594 465.140625 Z M 523.808594 455.683594 " clip-rule="nonzero"/></clipPath><clipPath id="a1d07ab7cb"><path d="M 557.324219 464.65625 L 566.773438 464.65625 L 566.773438 474.109375 L 557.324219 474.109375 Z M 557.324219 464.65625 " clip-rule="nonzero"/></clipPath><clipPath id="7aa45a4003"><path d="M 398.542969 333.746094 L 407.992188 333.746094 L 407.992188 343.203125 L 398.542969 343.203125 Z M 398.542969 333.746094 " clip-rule="nonzero"/></clipPath><clipPath id="5458f6f8cc"><path d="M 402.609375 381.535156 L 412.058594 381.535156 L 412.058594 390.988281 L 402.609375 390.988281 Z M 402.609375 381.535156 " clip-rule="nonzero"/></clipPath><clipPath id="e1c7c21235"><path d="M 387.621094 411.605469 L 397.070312 411.605469 L 397.070312 421.058594 L 387.621094 421.058594 Z M 387.621094 411.605469 " clip-rule="nonzero"/></clipPath><clipPath id="e1e5943b6a"><path d="M 391.863281 489.726562 L 401.3125 489.726562 L 401.3125 499.183594 L 391.863281 499.183594 Z M 391.863281 489.726562 " clip-rule="nonzero"/></clipPath><clipPath id="970520c274"><path d="M 383.054688 530.257812 L 392.503906 530.257812 L 392.503906 539.710938 L 383.054688 539.710938 Z M 383.054688 530.257812 " clip-rule="nonzero"/></clipPath><clipPath id="6c13aedf2d"><path d="M 390.007812 558.28125 L 399.457031 558.28125 L 399.457031 567.738281 L 390.007812 567.738281 Z M 390.007812 558.28125 " clip-rule="nonzero"/></clipPath><clipPath id="df76d6eab0"><path d="M 380.84375 587.222656 L 390.292969 587.222656 L 390.292969 596.675781 L 380.84375 596.675781 Z M 380.84375 587.222656 " clip-rule="nonzero"/></clipPath><clipPath id="2ad3140ec1"><path d="M 183.210938 227 L 626 227 L 626 336 L 183.210938 336 Z M 183.210938 227 " clip-rule="nonzero"/></clipPath></defs><g clip-path="url(#d4934d34d0)"><path fill="#ff94a0" d="M 191.386719 592.625 C 186.394531 499.769531 192.757812 415.457031 213.871094 330.640625 C 215.753906 323.046875 216.46875 310.457031 223.925781 308.078125 C 228.871094 306.484375 235.855469 308.953125 241.074219 308.777344 C 314.667969 306.300781 373.230469 306.84375 436.449219 314.683594 C 486.136719 320.851562 534.644531 318.207031 583.933594 327.003906 C 587.863281 327.703125 596.46875 331.054688 599.285156 333.878906 C 604.289062 338.902344 599.328125 352.363281 597.472656 359.207031 C 575.867188 439 573.726562 522.589844 571.714844 605.234375 C 445.007812 604.550781 318.332031 601.921875 191.683594 597.347656 " fill-opacity="1" fill-rule="nonzero"/></g><path fill="#ffaaac" d="M 384.351562 236.050781 L 439.964844 239.585938 C 423.738281 353.351562 410.414062 488.445312 404.121094 603.1875 L 375.101562 602.605469 C 384.097656 483.628906 387.335938 355.332031 384.351562 236.050781 " fill-opacity="1" fill-rule="nonzero"/><path fill="#ffaaac" d="M 577.164062 491.613281 L 318.8125 467.511719 C 275.632812 463.484375 236.605469 458.996094 193.265625 460.832031 L 195.121094 439.34375 C 195.351562 436.675781 194.664062 428.097656 196.589844 426.113281 C 199.496094 423.121094 214.210938 426.21875 218.417969 426.457031 L 316.796875 431.910156 C 361.449219 434.382812 406.09375 436.859375 450.679688 440.273438 C 494.433594 443.617188 536.816406 445.847656 579.972656 453.628906 C 577.714844 458.214844 578.023438 491.683594 577.164062 491.613281 Z M 577.164062 491.613281 " fill-opacity="1" fill-rule="nonzero"/><path fill="#ffaaac" d="M 406.324219 240.183594 C 431.40625 215.445312 464.019531 186.203125 489.117188 161.464844 C 492.539062 158.089844 496.859375 154.441406 501.542969 155.5 C 504.550781 156.1875 506.777344 158.6875 508.535156 161.234375 C 509.679688 162.9375 510.707031 164.710938 511.621094 166.550781 C 512.53125 168.390625 513.316406 170.28125 513.980469 172.226562 C 514.644531 174.167969 515.175781 176.148438 515.578125 178.164062 C 515.980469 180.175781 516.25 182.207031 516.382812 184.257812 C 516.519531 186.304688 516.519531 188.355469 516.386719 190.40625 C 516.25 192.453125 515.984375 194.484375 515.582031 196.5 C 515.179688 198.511719 514.648438 200.492188 513.988281 202.4375 C 513.328125 204.378906 512.542969 206.273438 511.632812 208.113281 C 503.335938 224.382812 485.832031 234.378906 467.949219 238.035156 C 450.066406 241.6875 424.492188 241.933594 406.324219 240.183594 " fill-opacity="1" fill-rule="nonzero"/><path fill="#ffaaac" d="M 404.660156 234.054688 C 389.59375 247.488281 354.988281 240.339844 340.425781 226.96875 C 327.726562 215.300781 317.230469 201.902344 308.9375 186.773438 C 303.894531 177.566406 299.734375 166.511719 303.738281 156.800781 C 309.304688 143.363281 328.238281 140.257812 341.210938 146.785156 C 354.1875 153.3125 362.5 166.246094 370.167969 178.625 L 404.660156 234.09375 " fill-opacity="1" fill-rule="nonzero"/><path fill="#ffaaac" d="M 421.492188 233.152344 C 415.035156 245.785156 396.546875 245.785156 392.769531 228.378906 C 390.835938 219.535156 401.289062 211.082031 410.179688 212.53125 C 419.074219 213.980469 425.042969 224.851562 421.492188 233.152344 " fill-opacity="1" fill-rule="nonzero"/><g clip-path="url(#9d973e8288)"><path fill="#ffffff" d="M 476.734375 543.054688 C 476.734375 543.367188 476.703125 543.671875 476.640625 543.976562 C 476.582031 544.28125 476.492188 544.578125 476.371094 544.863281 C 476.253906 545.152344 476.109375 545.421875 475.9375 545.679688 C 475.765625 545.941406 475.566406 546.179688 475.347656 546.398438 C 475.128906 546.617188 474.890625 546.8125 474.632812 546.984375 C 474.375 547.160156 474.101562 547.304688 473.816406 547.421875 C 473.527344 547.542969 473.234375 547.632812 472.929688 547.691406 C 472.625 547.753906 472.316406 547.78125 472.007812 547.78125 C 471.695312 547.78125 471.390625 547.753906 471.085938 547.691406 C 470.78125 547.632812 470.484375 547.542969 470.199219 547.421875 C 469.914062 547.304688 469.640625 547.160156 469.382812 546.984375 C 469.125 546.8125 468.886719 546.617188 468.667969 546.398438 C 468.445312 546.179688 468.25 545.941406 468.078125 545.679688 C 467.90625 545.421875 467.761719 545.152344 467.640625 544.863281 C 467.523438 544.578125 467.433594 544.28125 467.371094 543.976562 C 467.3125 543.671875 467.28125 543.367188 467.28125 543.054688 C 467.28125 542.746094 467.3125 542.4375 467.371094 542.132812 C 467.433594 541.828125 467.523438 541.53125 467.640625 541.246094 C 467.761719 540.957031 467.90625 540.6875 468.078125 540.429688 C 468.25 540.171875 468.445312 539.929688 468.667969 539.710938 C 468.886719 539.492188 469.125 539.296875 469.382812 539.125 C 469.640625 538.953125 469.914062 538.804688 470.199219 538.6875 C 470.484375 538.566406 470.78125 538.476562 471.085938 538.417969 C 471.390625 538.355469 471.695312 538.328125 472.007812 538.328125 C 472.316406 538.328125 472.625 538.355469 472.929688 538.417969 C 473.234375 538.476562 473.527344 538.566406 473.816406 538.6875 C 474.101562 538.804688 474.375 538.953125 474.632812 539.125 C 474.890625 539.296875 475.128906 539.492188 475.347656 539.710938 C 475.566406 539.929688 475.765625 540.171875 475.9375 540.429688 C 476.109375 540.6875 476.253906 540.957031 476.371094 541.246094 C 476.492188 541.53125 476.582031 541.828125 476.640625 542.132812 C 476.703125 542.4375 476.734375 542.746094 476.734375 543.054688 Z M 476.734375 543.054688 " fill-opacity="1" fill-rule="nonzero"/></g><g clip-path="url(#0ceae2a23f)"><path fill="#ffffff" d="M 285.367188 507.0625 C 285.367188 507.371094 285.339844 507.679688 285.277344 507.984375 C 285.21875 508.289062 285.128906 508.585938 285.007812 508.871094 C 284.890625 509.160156 284.746094 509.429688 284.570312 509.6875 C 284.398438 509.945312 284.203125 510.1875 283.984375 510.40625 C 283.765625 510.625 283.527344 510.820312 283.269531 510.992188 C 283.011719 511.164062 282.738281 511.3125 282.453125 511.429688 C 282.164062 511.550781 281.871094 511.640625 281.566406 511.699219 C 281.261719 511.761719 280.953125 511.789062 280.644531 511.789062 C 280.332031 511.789062 280.027344 511.761719 279.722656 511.699219 C 279.417969 511.640625 279.121094 511.550781 278.835938 511.429688 C 278.546875 511.3125 278.277344 511.164062 278.019531 510.992188 C 277.761719 510.820312 277.519531 510.625 277.300781 510.40625 C 277.082031 510.1875 276.886719 509.945312 276.714844 509.6875 C 276.542969 509.429688 276.394531 509.160156 276.277344 508.871094 C 276.160156 508.585938 276.070312 508.289062 276.007812 507.984375 C 275.949219 507.679688 275.917969 507.371094 275.917969 507.0625 C 275.917969 506.75 275.949219 506.445312 276.007812 506.140625 C 276.070312 505.835938 276.160156 505.539062 276.277344 505.253906 C 276.394531 504.964844 276.542969 504.695312 276.714844 504.4375 C 276.886719 504.175781 277.082031 503.9375 277.300781 503.71875 C 277.519531 503.5 277.761719 503.304688 278.019531 503.132812 C 278.277344 502.957031 278.546875 502.8125 278.835938 502.695312 C 279.121094 502.574219 279.417969 502.484375 279.722656 502.425781 C 280.027344 502.363281 280.332031 502.335938 280.644531 502.335938 C 280.953125 502.335938 281.261719 502.363281 281.566406 502.425781 C 281.871094 502.484375 282.164062 502.574219 282.453125 502.695312 C 282.738281 502.8125 283.011719 502.957031 283.269531 503.132812 C 283.527344 503.304688 283.765625 503.5 283.984375 503.71875 C 284.203125 503.9375 284.398438 504.175781 284.570312 504.4375 C 284.746094 504.695312 284.890625 504.964844 285.007812 505.253906 C 285.128906 505.539062 285.21875 505.835938 285.277344 506.140625 C 285.339844 506.445312 285.367188 506.75 285.367188 507.0625 Z M 285.367188 507.0625 " fill-opacity="1" fill-rule="nonzero"/></g><g clip-path="url(#99ef4771de)"><path fill="#ffffff" d="M 239.261719 551.292969 C 239.261719 551.601562 239.230469 551.910156 239.171875 552.214844 C 239.109375 552.519531 239.019531 552.816406 238.902344 553.101562 C 238.78125 553.390625 238.636719 553.660156 238.464844 553.917969 C 238.292969 554.175781 238.097656 554.417969 237.878906 554.636719 C 237.65625 554.855469 237.417969 555.050781 237.160156 555.222656 C 236.902344 555.394531 236.632812 555.542969 236.34375 555.660156 C 236.058594 555.78125 235.761719 555.871094 235.457031 555.929688 C 235.152344 555.992188 234.847656 556.019531 234.535156 556.019531 C 234.226562 556.019531 233.917969 555.992188 233.613281 555.929688 C 233.308594 555.871094 233.015625 555.78125 232.726562 555.660156 C 232.441406 555.542969 232.167969 555.394531 231.910156 555.222656 C 231.652344 555.050781 231.414062 554.855469 231.195312 554.636719 C 230.976562 554.417969 230.78125 554.175781 230.605469 553.917969 C 230.433594 553.660156 230.289062 553.390625 230.171875 553.101562 C 230.050781 552.816406 229.960938 552.519531 229.902344 552.214844 C 229.839844 551.910156 229.8125 551.601562 229.8125 551.292969 C 229.8125 550.980469 229.839844 550.675781 229.902344 550.371094 C 229.960938 550.066406 230.050781 549.769531 230.171875 549.484375 C 230.289062 549.195312 230.433594 548.925781 230.605469 548.667969 C 230.78125 548.40625 230.976562 548.167969 231.195312 547.949219 C 231.414062 547.730469 231.652344 547.535156 231.910156 547.363281 C 232.167969 547.1875 232.441406 547.042969 232.726562 546.925781 C 233.015625 546.804688 233.308594 546.714844 233.613281 546.65625 C 233.917969 546.59375 234.226562 546.566406 234.535156 546.566406 C 234.847656 546.566406 235.152344 546.59375 235.457031 546.65625 C 235.761719 546.714844 236.058594 546.804688 236.34375 546.925781 C 236.632812 547.042969 236.902344 547.1875 237.160156 547.363281 C 237.417969 547.535156 237.65625 547.730469 237.878906 547.949219 C 238.097656 548.167969 238.292969 548.40625 238.464844 548.667969 C 238.636719 548.925781 238.78125 549.195312 238.902344 549.484375 C 239.019531 549.769531 239.109375 550.066406 239.171875 550.371094 C 239.230469 550.675781 239.261719 550.980469 239.261719 551.292969 Z M 239.261719 551.292969 " fill-opacity="1" fill-rule="nonzero"/></g><g clip-path="url(#a2215c5106)"><path fill="#ffffff" d="M 243.867188 393.417969 C 243.867188 393.726562 243.835938 394.035156 243.777344 394.339844 C 243.714844 394.644531 243.625 394.941406 243.507812 395.226562 C 243.390625 395.511719 243.242188 395.785156 243.070312 396.042969 C 242.898438 396.300781 242.703125 396.542969 242.484375 396.761719 C 242.265625 396.980469 242.023438 397.175781 241.765625 397.347656 C 241.507812 397.519531 241.238281 397.667969 240.949219 397.785156 C 240.664062 397.902344 240.367188 397.992188 240.0625 398.054688 C 239.757812 398.113281 239.453125 398.144531 239.140625 398.144531 C 238.832031 398.144531 238.523438 398.113281 238.21875 398.054688 C 237.914062 397.992188 237.621094 397.902344 237.332031 397.785156 C 237.046875 397.667969 236.773438 397.519531 236.515625 397.347656 C 236.257812 397.175781 236.019531 396.980469 235.800781 396.761719 C 235.582031 396.542969 235.386719 396.300781 235.214844 396.042969 C 235.039062 395.785156 234.894531 395.511719 234.777344 395.226562 C 234.65625 394.941406 234.566406 394.644531 234.507812 394.339844 C 234.445312 394.035156 234.417969 393.726562 234.417969 393.417969 C 234.417969 393.105469 234.445312 392.800781 234.507812 392.496094 C 234.566406 392.191406 234.65625 391.894531 234.777344 391.609375 C 234.894531 391.320312 235.039062 391.050781 235.214844 390.789062 C 235.386719 390.53125 235.582031 390.292969 235.800781 390.074219 C 236.019531 389.855469 236.257812 389.660156 236.515625 389.488281 C 236.773438 389.3125 237.046875 389.167969 237.332031 389.050781 C 237.621094 388.929688 237.914062 388.839844 238.21875 388.78125 C 238.523438 388.71875 238.832031 388.691406 239.140625 388.691406 C 239.453125 388.691406 239.757812 388.71875 240.0625 388.78125 C 240.367188 388.839844 240.664062 388.929688 240.949219 389.050781 C 241.238281 389.167969 241.507812 389.3125 241.765625 389.488281 C 242.023438 389.660156 242.265625 389.855469 242.484375 390.074219 C 242.703125 390.292969 242.898438 390.53125 243.070312 390.789062 C 243.242188 391.050781 243.390625 391.320312 243.507812 391.609375 C 243.625 391.894531 243.714844 392.191406 243.777344 392.496094 C 243.835938 392.800781 243.867188 393.105469 243.867188 393.417969 Z M 243.867188 393.417969 " fill-opacity="1" fill-rule="nonzero"/></g><g clip-path="url(#f1c551d5a8)"><path fill="#ffffff" d="M 256.085938 336.699219 C 256.085938 337.007812 256.054688 337.316406 255.996094 337.621094 C 255.933594 337.925781 255.84375 338.222656 255.726562 338.507812 C 255.609375 338.792969 255.460938 339.066406 255.289062 339.324219 C 255.117188 339.582031 254.921875 339.820312 254.703125 340.042969 C 254.484375 340.261719 254.242188 340.457031 253.984375 340.628906 C 253.726562 340.800781 253.457031 340.949219 253.167969 341.066406 C 252.882812 341.183594 252.585938 341.273438 252.28125 341.335938 C 251.976562 341.394531 251.671875 341.425781 251.359375 341.425781 C 251.050781 341.425781 250.742188 341.394531 250.4375 341.335938 C 250.136719 341.273438 249.839844 341.183594 249.550781 341.066406 C 249.265625 340.949219 248.992188 340.800781 248.734375 340.628906 C 248.476562 340.457031 248.238281 340.261719 248.019531 340.042969 C 247.800781 339.820312 247.605469 339.582031 247.433594 339.324219 C 247.257812 339.066406 247.113281 338.792969 246.996094 338.507812 C 246.875 338.222656 246.785156 337.925781 246.726562 337.621094 C 246.664062 337.316406 246.636719 337.007812 246.636719 336.699219 C 246.636719 336.386719 246.664062 336.082031 246.726562 335.777344 C 246.785156 335.472656 246.875 335.175781 246.996094 334.890625 C 247.113281 334.601562 247.257812 334.328125 247.433594 334.070312 C 247.605469 333.8125 247.800781 333.574219 248.019531 333.355469 C 248.238281 333.136719 248.476562 332.941406 248.734375 332.765625 C 248.992188 332.59375 249.265625 332.449219 249.550781 332.332031 C 249.839844 332.210938 250.136719 332.121094 250.4375 332.0625 C 250.742188 332 251.050781 331.96875 251.359375 331.96875 C 251.671875 331.96875 251.976562 332 252.28125 332.0625 C 252.585938 332.121094 252.882812 332.210938 253.167969 332.332031 C 253.457031 332.449219 253.726562 332.59375 253.984375 332.765625 C 254.242188 332.941406 254.484375 333.136719 254.703125 333.355469 C 254.921875 333.574219 255.117188 333.8125 255.289062 334.070312 C 255.460938 334.328125 255.609375 334.601562 255.726562 334.890625 C 255.84375 335.175781 255.933594 335.472656 255.996094 335.777344 C 256.054688 336.082031 256.085938 336.386719 256.085938 336.699219 Z M 256.085938 336.699219 " fill-opacity="1" fill-rule="nonzero"/></g><g clip-path="url(#b6553d9f79)"><path fill="#ffffff" d="M 361.824219 386.101562 C 361.824219 386.414062 361.792969 386.71875 361.734375 387.023438 C 361.671875 387.328125 361.582031 387.625 361.464844 387.910156 C 361.34375 388.199219 361.199219 388.472656 361.027344 388.730469 C 360.855469 388.988281 360.660156 389.226562 360.4375 389.445312 C 360.21875 389.664062 359.980469 389.863281 359.722656 390.035156 C 359.464844 390.207031 359.191406 390.351562 358.90625 390.472656 C 358.621094 390.589844 358.324219 390.679688 358.019531 390.738281 C 357.714844 390.800781 357.410156 390.832031 357.097656 390.832031 C 356.789062 390.832031 356.480469 390.800781 356.175781 390.738281 C 355.871094 390.679688 355.578125 390.589844 355.289062 390.472656 C 355.003906 390.351562 354.730469 390.207031 354.472656 390.035156 C 354.214844 389.863281 353.976562 389.664062 353.757812 389.445312 C 353.539062 389.226562 353.339844 388.988281 353.167969 388.730469 C 352.996094 388.472656 352.851562 388.199219 352.734375 387.910156 C 352.613281 387.625 352.523438 387.328125 352.464844 387.023438 C 352.402344 386.71875 352.371094 386.414062 352.371094 386.101562 C 352.371094 385.792969 352.402344 385.484375 352.464844 385.179688 C 352.523438 384.875 352.613281 384.582031 352.734375 384.292969 C 352.851562 384.007812 352.996094 383.734375 353.167969 383.476562 C 353.339844 383.21875 353.539062 382.980469 353.757812 382.757812 C 353.976562 382.539062 354.214844 382.34375 354.472656 382.171875 C 354.730469 382 355.003906 381.851562 355.289062 381.734375 C 355.578125 381.617188 355.871094 381.527344 356.175781 381.464844 C 356.480469 381.40625 356.789062 381.375 357.097656 381.375 C 357.410156 381.375 357.714844 381.40625 358.019531 381.464844 C 358.324219 381.527344 358.621094 381.617188 358.90625 381.734375 C 359.191406 381.851562 359.464844 382 359.722656 382.171875 C 359.980469 382.34375 360.21875 382.539062 360.4375 382.757812 C 360.660156 382.980469 360.855469 383.21875 361.027344 383.476562 C 361.199219 383.734375 361.34375 384.007812 361.464844 384.292969 C 361.582031 384.582031 361.671875 384.875 361.734375 385.179688 C 361.792969 385.484375 361.824219 385.792969 361.824219 386.101562 Z M 361.824219 386.101562 " fill-opacity="1" fill-rule="nonzero"/></g><g clip-path="url(#bbc9b0fbdc)"><path fill="#ffffff" d="M 344.289062 331.53125 C 344.289062 331.84375 344.261719 332.152344 344.199219 332.457031 C 344.140625 332.757812 344.050781 333.054688 343.929688 333.34375 C 343.8125 333.628906 343.667969 333.902344 343.496094 334.160156 C 343.320312 334.417969 343.125 334.65625 342.90625 334.875 C 342.6875 335.09375 342.449219 335.292969 342.191406 335.464844 C 341.933594 335.636719 341.660156 335.78125 341.375 335.902344 C 341.085938 336.019531 340.792969 336.109375 340.488281 336.167969 C 340.183594 336.230469 339.875 336.261719 339.566406 336.261719 C 339.253906 336.261719 338.949219 336.230469 338.644531 336.167969 C 338.339844 336.109375 338.042969 336.019531 337.757812 335.902344 C 337.46875 335.78125 337.199219 335.636719 336.941406 335.464844 C 336.683594 335.292969 336.445312 335.09375 336.222656 334.875 C 336.003906 334.65625 335.808594 334.417969 335.636719 334.160156 C 335.464844 333.902344 335.320312 333.628906 335.199219 333.34375 C 335.082031 333.054688 334.992188 332.757812 334.929688 332.457031 C 334.871094 332.152344 334.839844 331.84375 334.839844 331.53125 C 334.839844 331.222656 334.871094 330.914062 334.929688 330.609375 C 334.992188 330.304688 335.082031 330.011719 335.199219 329.722656 C 335.320312 329.4375 335.464844 329.164062 335.636719 328.90625 C 335.808594 328.648438 336.003906 328.410156 336.222656 328.191406 C 336.445312 327.96875 336.683594 327.773438 336.941406 327.601562 C 337.199219 327.429688 337.46875 327.285156 337.757812 327.164062 C 338.042969 327.046875 338.339844 326.957031 338.644531 326.894531 C 338.949219 326.835938 339.253906 326.804688 339.566406 326.804688 C 339.875 326.804688 340.183594 326.835938 340.488281 326.894531 C 340.792969 326.957031 341.085938 327.046875 341.375 327.164062 C 341.660156 327.285156 341.933594 327.429688 342.191406 327.601562 C 342.449219 327.773438 342.6875 327.96875 342.90625 328.191406 C 343.125 328.410156 343.320312 328.648438 343.496094 328.90625 C 343.667969 329.164062 343.8125 329.4375 343.929688 329.722656 C 344.050781 330.011719 344.140625 330.304688 344.199219 330.609375 C 344.261719 330.914062 344.289062 331.222656 344.289062 331.53125 Z M 344.289062 331.53125 " fill-opacity="1" fill-rule="nonzero"/></g><g clip-path="url(#946cbe4f95)"><path fill="#ffffff" d="M 300.65625 380.46875 C 300.65625 380.777344 300.628906 381.085938 300.566406 381.390625 C 300.507812 381.695312 300.417969 381.988281 300.296875 382.277344 C 300.179688 382.5625 300.035156 382.835938 299.863281 383.09375 C 299.6875 383.351562 299.492188 383.589844 299.273438 383.8125 C 299.054688 384.03125 298.816406 384.226562 298.558594 384.398438 C 298.300781 384.570312 298.027344 384.714844 297.742188 384.835938 C 297.453125 384.953125 297.160156 385.042969 296.855469 385.105469 C 296.550781 385.164062 296.242188 385.195312 295.933594 385.195312 C 295.621094 385.195312 295.316406 385.164062 295.011719 385.105469 C 294.707031 385.042969 294.410156 384.953125 294.125 384.835938 C 293.835938 384.714844 293.566406 384.570312 293.308594 384.398438 C 293.050781 384.226562 292.8125 384.03125 292.589844 383.8125 C 292.371094 383.589844 292.175781 383.351562 292.003906 383.09375 C 291.832031 382.835938 291.6875 382.5625 291.566406 382.277344 C 291.449219 381.988281 291.359375 381.695312 291.296875 381.390625 C 291.238281 381.085938 291.207031 380.777344 291.207031 380.46875 C 291.207031 380.15625 291.238281 379.847656 291.296875 379.546875 C 291.359375 379.242188 291.449219 378.945312 291.566406 378.65625 C 291.6875 378.371094 291.832031 378.097656 292.003906 377.839844 C 292.175781 377.582031 292.371094 377.34375 292.589844 377.125 C 292.8125 376.90625 293.050781 376.707031 293.308594 376.535156 C 293.566406 376.363281 293.835938 376.21875 294.125 376.097656 C 294.410156 375.980469 294.707031 375.890625 295.011719 375.832031 C 295.316406 375.769531 295.621094 375.738281 295.933594 375.738281 C 296.242188 375.738281 296.550781 375.769531 296.855469 375.832031 C 297.160156 375.890625 297.453125 375.980469 297.742188 376.097656 C 298.027344 376.21875 298.300781 376.363281 298.558594 376.535156 C 298.816406 376.707031 299.054688 376.90625 299.273438 377.125 C 299.492188 377.34375 299.6875 377.582031 299.863281 377.839844 C 300.035156 378.097656 300.179688 378.371094 300.296875 378.65625 C 300.417969 378.945312 300.507812 379.242188 300.566406 379.546875 C 300.628906 379.847656 300.65625 380.15625 300.65625 380.46875 Z M 300.65625 380.46875 " fill-opacity="1" fill-rule="nonzero"/></g><g clip-path="url(#a98ec76709)"><path fill="#ffffff" d="M 465.960938 346.496094 C 465.960938 346.808594 465.929688 347.113281 465.871094 347.417969 C 465.808594 347.722656 465.722656 348.019531 465.601562 348.304688 C 465.484375 348.59375 465.335938 348.863281 465.164062 349.125 C 464.992188 349.382812 464.796875 349.621094 464.578125 349.839844 C 464.359375 350.058594 464.121094 350.253906 463.863281 350.425781 C 463.605469 350.601562 463.332031 350.746094 463.042969 350.863281 C 462.757812 350.984375 462.460938 351.074219 462.160156 351.132812 C 461.855469 351.195312 461.546875 351.222656 461.238281 351.222656 C 460.925781 351.222656 460.617188 351.195312 460.316406 351.132812 C 460.011719 351.074219 459.714844 350.984375 459.429688 350.863281 C 459.140625 350.746094 458.871094 350.601562 458.609375 350.425781 C 458.351562 350.253906 458.113281 350.058594 457.894531 349.839844 C 457.675781 349.621094 457.480469 349.382812 457.308594 349.125 C 457.136719 348.863281 456.988281 348.59375 456.871094 348.304688 C 456.753906 348.019531 456.664062 347.722656 456.601562 347.417969 C 456.542969 347.113281 456.511719 346.808594 456.511719 346.496094 C 456.511719 346.1875 456.542969 345.878906 456.601562 345.574219 C 456.664062 345.269531 456.753906 344.972656 456.871094 344.6875 C 456.988281 344.402344 457.136719 344.128906 457.308594 343.871094 C 457.480469 343.613281 457.675781 343.371094 457.894531 343.152344 C 458.113281 342.933594 458.351562 342.738281 458.609375 342.566406 C 458.871094 342.394531 459.140625 342.246094 459.429688 342.128906 C 459.714844 342.007812 460.011719 341.921875 460.316406 341.859375 C 460.617188 341.800781 460.925781 341.769531 461.238281 341.769531 C 461.546875 341.769531 461.855469 341.800781 462.160156 341.859375 C 462.460938 341.921875 462.757812 342.007812 463.042969 342.128906 C 463.332031 342.246094 463.605469 342.394531 463.863281 342.566406 C 464.121094 342.738281 464.359375 342.933594 464.578125 343.152344 C 464.796875 343.371094 464.992188 343.613281 465.164062 343.871094 C 465.335938 344.128906 465.484375 344.402344 465.601562 344.6875 C 465.722656 344.972656 465.808594 345.269531 465.871094 345.574219 C 465.929688 345.878906 465.960938 346.1875 465.960938 346.496094 Z M 465.960938 346.496094 " fill-opacity="1" fill-rule="nonzero"/></g><g clip-path="url(#e32cfc2bde)"><path fill="#ffffff" d="M 566.242188 355.363281 C 566.242188 355.671875 566.210938 355.980469 566.152344 356.285156 C 566.089844 356.589844 566 356.886719 565.882812 357.171875 C 565.761719 357.460938 565.617188 357.730469 565.445312 357.988281 C 565.273438 358.25 565.078125 358.488281 564.859375 358.707031 C 564.636719 358.925781 564.398438 359.121094 564.140625 359.292969 C 563.882812 359.46875 563.613281 359.613281 563.324219 359.730469 C 563.039062 359.851562 562.742188 359.941406 562.4375 360 C 562.132812 360.0625 561.828125 360.089844 561.515625 360.089844 C 561.207031 360.089844 560.898438 360.0625 560.59375 360 C 560.289062 359.941406 559.996094 359.851562 559.707031 359.730469 C 559.421875 359.613281 559.148438 359.46875 558.890625 359.292969 C 558.632812 359.121094 558.394531 358.925781 558.175781 358.707031 C 557.957031 358.488281 557.761719 358.25 557.585938 357.988281 C 557.414062 357.730469 557.269531 357.460938 557.152344 357.171875 C 557.03125 356.886719 556.941406 356.589844 556.882812 356.285156 C 556.820312 355.980469 556.792969 355.671875 556.792969 355.363281 C 556.792969 355.054688 556.820312 354.746094 556.882812 354.441406 C 556.941406 354.136719 557.03125 353.839844 557.152344 353.554688 C 557.269531 353.265625 557.414062 352.996094 557.585938 352.738281 C 557.761719 352.480469 557.957031 352.238281 558.175781 352.019531 C 558.394531 351.800781 558.632812 351.605469 558.890625 351.433594 C 559.148438 351.257812 559.421875 351.113281 559.707031 350.996094 C 559.996094 350.875 560.289062 350.785156 560.59375 350.726562 C 560.898438 350.664062 561.207031 350.636719 561.515625 350.636719 C 561.828125 350.636719 562.132812 350.664062 562.4375 350.726562 C 562.742188 350.785156 563.039062 350.875 563.324219 350.996094 C 563.613281 351.113281 563.882812 351.257812 564.140625 351.433594 C 564.398438 351.605469 564.636719 351.800781 564.859375 352.019531 C 565.078125 352.238281 565.273438 352.480469 565.445312 352.738281 C 565.617188 352.996094 565.761719 353.265625 565.882812 353.554688 C 566 353.839844 566.089844 354.136719 566.152344 354.441406 C 566.210938 354.746094 566.242188 355.054688 566.242188 355.363281 Z M 566.242188 355.363281 " fill-opacity="1" fill-rule="nonzero"/></g><g clip-path="url(#56ccda2bd8)"><path fill="#ffffff" d="M 561.078125 409.78125 C 561.078125 410.09375 561.046875 410.398438 560.988281 410.703125 C 560.929688 411.007812 560.839844 411.304688 560.71875 411.589844 C 560.601562 411.878906 560.457031 412.152344 560.28125 412.410156 C 560.109375 412.667969 559.914062 412.90625 559.695312 413.125 C 559.476562 413.34375 559.238281 413.539062 558.980469 413.714844 C 558.722656 413.886719 558.449219 414.03125 558.164062 414.148438 C 557.875 414.269531 557.578125 414.359375 557.277344 414.417969 C 556.972656 414.480469 556.664062 414.511719 556.355469 414.511719 C 556.042969 414.511719 555.734375 414.480469 555.433594 414.417969 C 555.128906 414.359375 554.832031 414.269531 554.546875 414.148438 C 554.257812 414.03125 553.988281 413.886719 553.730469 413.714844 C 553.46875 413.539062 553.230469 413.34375 553.011719 413.125 C 552.792969 412.90625 552.597656 412.667969 552.425781 412.410156 C 552.253906 412.152344 552.105469 411.878906 551.988281 411.589844 C 551.871094 411.304688 551.78125 411.007812 551.71875 410.703125 C 551.660156 410.398438 551.628906 410.09375 551.628906 409.78125 C 551.628906 409.472656 551.660156 409.164062 551.71875 408.859375 C 551.78125 408.554688 551.871094 408.257812 551.988281 407.972656 C 552.105469 407.6875 552.253906 407.414062 552.425781 407.15625 C 552.597656 406.898438 552.792969 406.660156 553.011719 406.4375 C 553.230469 406.21875 553.46875 406.023438 553.730469 405.851562 C 553.988281 405.679688 554.257812 405.53125 554.546875 405.414062 C 554.832031 405.296875 555.128906 405.207031 555.433594 405.144531 C 555.734375 405.085938 556.042969 405.054688 556.355469 405.054688 C 556.664062 405.054688 556.972656 405.085938 557.277344 405.144531 C 557.578125 405.207031 557.875 405.296875 558.164062 405.414062 C 558.449219 405.53125 558.722656 405.679688 558.980469 405.851562 C 559.238281 406.023438 559.476562 406.21875 559.695312 406.4375 C 559.914062 406.660156 560.109375 406.898438 560.28125 407.15625 C 560.457031 407.414062 560.601562 407.6875 560.71875 407.972656 C 560.839844 408.257812 560.929688 408.554688 560.988281 408.859375 C 561.046875 409.164062 561.078125 409.472656 561.078125 409.78125 Z M 561.078125 409.78125 " fill-opacity="1" fill-rule="nonzero"/></g><g clip-path="url(#f23b841a53)"><path fill="#ffffff" d="M 458.976562 411.5 C 458.976562 411.8125 458.945312 412.117188 458.886719 412.421875 C 458.824219 412.726562 458.734375 413.023438 458.617188 413.308594 C 458.5 413.597656 458.351562 413.871094 458.179688 414.128906 C 458.007812 414.386719 457.8125 414.625 457.59375 414.84375 C 457.375 415.0625 457.136719 415.261719 456.878906 415.433594 C 456.621094 415.605469 456.347656 415.75 456.058594 415.871094 C 455.773438 415.988281 455.476562 416.078125 455.175781 416.136719 C 454.871094 416.199219 454.5625 416.230469 454.253906 416.230469 C 453.941406 416.230469 453.632812 416.199219 453.332031 416.136719 C 453.027344 416.078125 452.730469 415.988281 452.445312 415.871094 C 452.15625 415.75 451.886719 415.605469 451.625 415.433594 C 451.367188 415.261719 451.128906 415.0625 450.910156 414.84375 C 450.691406 414.625 450.496094 414.386719 450.324219 414.128906 C 450.152344 413.871094 450.003906 413.597656 449.886719 413.308594 C 449.769531 413.023438 449.679688 412.726562 449.617188 412.421875 C 449.558594 412.117188 449.527344 411.8125 449.527344 411.5 C 449.527344 411.191406 449.558594 410.882812 449.617188 410.578125 C 449.679688 410.273438 449.769531 409.980469 449.886719 409.691406 C 450.003906 409.40625 450.152344 409.132812 450.324219 408.875 C 450.496094 408.617188 450.691406 408.378906 450.910156 408.15625 C 451.128906 407.9375 451.367188 407.742188 451.625 407.570312 C 451.886719 407.398438 452.15625 407.253906 452.445312 407.132812 C 452.730469 407.015625 453.027344 406.925781 453.332031 406.863281 C 453.632812 406.804688 453.941406 406.773438 454.253906 406.773438 C 454.5625 406.773438 454.871094 406.804688 455.175781 406.863281 C 455.476562 406.925781 455.773438 407.015625 456.058594 407.132812 C 456.347656 407.253906 456.621094 407.398438 456.878906 407.570312 C 457.136719 407.742188 457.375 407.9375 457.59375 408.15625 C 457.8125 408.378906 458.007812 408.617188 458.179688 408.875 C 458.351562 409.132812 458.5 409.40625 458.617188 409.691406 C 458.734375 409.980469 458.824219 410.273438 458.886719 410.578125 C 458.945312 410.882812 458.976562 411.191406 458.976562 411.5 Z M 458.976562 411.5 " fill-opacity="1" fill-rule="nonzero"/></g><g clip-path="url(#98f59fc5d2)"><path fill="#ffffff" d="M 508.664062 381.015625 C 508.664062 381.328125 508.632812 381.632812 508.574219 381.9375 C 508.511719 382.242188 508.421875 382.539062 508.304688 382.824219 C 508.183594 383.113281 508.039062 383.386719 507.867188 383.644531 C 507.695312 383.902344 507.5 384.140625 507.28125 384.359375 C 507.0625 384.578125 506.820312 384.773438 506.5625 384.949219 C 506.304688 385.121094 506.035156 385.265625 505.746094 385.382812 C 505.460938 385.503906 505.164062 385.59375 504.859375 385.652344 C 504.554688 385.714844 504.25 385.746094 503.9375 385.746094 C 503.628906 385.746094 503.320312 385.714844 503.015625 385.652344 C 502.710938 385.59375 502.417969 385.503906 502.128906 385.382812 C 501.84375 385.265625 501.570312 385.121094 501.3125 384.949219 C 501.054688 384.773438 500.816406 384.578125 500.597656 384.359375 C 500.378906 384.140625 500.183594 383.902344 500.011719 383.644531 C 499.835938 383.386719 499.691406 383.113281 499.574219 382.824219 C 499.453125 382.539062 499.363281 382.242188 499.304688 381.9375 C 499.242188 381.632812 499.214844 381.328125 499.214844 381.015625 C 499.214844 380.707031 499.242188 380.398438 499.304688 380.09375 C 499.363281 379.789062 499.453125 379.492188 499.574219 379.207031 C 499.691406 378.921875 499.835938 378.648438 500.011719 378.390625 C 500.183594 378.132812 500.378906 377.894531 500.597656 377.671875 C 500.816406 377.453125 501.054688 377.257812 501.3125 377.085938 C 501.570312 376.914062 501.84375 376.765625 502.128906 376.648438 C 502.417969 376.53125 502.710938 376.441406 503.015625 376.378906 C 503.320312 376.320312 503.628906 376.289062 503.9375 376.289062 C 504.25 376.289062 504.554688 376.320312 504.859375 376.378906 C 505.164062 376.441406 505.460938 376.53125 505.746094 376.648438 C 506.035156 376.765625 506.304688 376.914062 506.5625 377.085938 C 506.820312 377.257812 507.0625 377.453125 507.28125 377.671875 C 507.5 377.894531 507.695312 378.132812 507.867188 378.390625 C 508.039062 378.648438 508.183594 378.921875 508.304688 379.207031 C 508.421875 379.492188 508.511719 379.789062 508.574219 380.09375 C 508.632812 380.398438 508.664062 380.707031 508.664062 381.015625 Z M 508.664062 381.015625 " fill-opacity="1" fill-rule="nonzero"/></g><g clip-path="url(#22d41102d3)"><path fill="#ffffff" d="M 508.703125 502.421875 C 508.703125 502.730469 508.671875 503.039062 508.613281 503.34375 C 508.550781 503.648438 508.460938 503.945312 508.34375 504.230469 C 508.226562 504.519531 508.078125 504.789062 507.90625 505.046875 C 507.734375 505.308594 507.539062 505.546875 507.320312 505.765625 C 507.101562 505.984375 506.863281 506.179688 506.605469 506.351562 C 506.34375 506.527344 506.074219 506.671875 505.785156 506.789062 C 505.5 506.910156 505.203125 507 504.898438 507.058594 C 504.597656 507.121094 504.289062 507.148438 503.976562 507.148438 C 503.667969 507.148438 503.359375 507.121094 503.054688 507.058594 C 502.753906 507 502.457031 506.910156 502.171875 506.789062 C 501.882812 506.671875 501.609375 506.527344 501.351562 506.351562 C 501.09375 506.179688 500.855469 505.984375 500.636719 505.765625 C 500.417969 505.546875 500.222656 505.308594 500.050781 505.046875 C 499.878906 504.789062 499.730469 504.519531 499.613281 504.230469 C 499.496094 503.945312 499.40625 503.648438 499.34375 503.34375 C 499.285156 503.039062 499.253906 502.730469 499.253906 502.421875 C 499.253906 502.113281 499.285156 501.804688 499.34375 501.5 C 499.40625 501.195312 499.496094 500.898438 499.613281 500.613281 C 499.730469 500.324219 499.878906 500.054688 500.050781 499.796875 C 500.222656 499.539062 500.417969 499.296875 500.636719 499.078125 C 500.855469 498.859375 501.09375 498.664062 501.351562 498.492188 C 501.609375 498.316406 501.882812 498.171875 502.171875 498.054688 C 502.457031 497.933594 502.753906 497.84375 503.054688 497.785156 C 503.359375 497.722656 503.667969 497.695312 503.976562 497.695312 C 504.289062 497.695312 504.597656 497.722656 504.898438 497.785156 C 505.203125 497.84375 505.5 497.933594 505.785156 498.054688 C 506.074219 498.171875 506.34375 498.316406 506.605469 498.492188 C 506.863281 498.664062 507.101562 498.859375 507.320312 499.078125 C 507.539062 499.296875 507.734375 499.539062 507.90625 499.796875 C 508.078125 500.054688 508.226562 500.324219 508.34375 500.613281 C 508.460938 500.898438 508.550781 501.195312 508.613281 501.5 C 508.671875 501.804688 508.703125 502.113281 508.703125 502.421875 Z M 508.703125 502.421875 " fill-opacity="1" fill-rule="nonzero"/></g><g clip-path="url(#8bc44bc2e2)"><path fill="#ffffff" d="M 550.929688 579.699219 C 550.929688 580.011719 550.898438 580.316406 550.835938 580.621094 C 550.777344 580.925781 550.6875 581.222656 550.570312 581.507812 C 550.449219 581.796875 550.304688 582.070312 550.132812 582.328125 C 549.960938 582.585938 549.765625 582.824219 549.542969 583.042969 C 549.324219 583.261719 549.085938 583.457031 548.828125 583.632812 C 548.570312 583.804688 548.296875 583.949219 548.011719 584.066406 C 547.726562 584.1875 547.429688 584.277344 547.125 584.335938 C 546.820312 584.398438 546.511719 584.429688 546.203125 584.429688 C 545.894531 584.429688 545.585938 584.398438 545.28125 584.335938 C 544.976562 584.277344 544.683594 584.1875 544.394531 584.066406 C 544.109375 583.949219 543.835938 583.804688 543.578125 583.632812 C 543.320312 583.457031 543.082031 583.261719 542.863281 583.042969 C 542.644531 582.824219 542.445312 582.585938 542.273438 582.328125 C 542.101562 582.070312 541.957031 581.796875 541.835938 581.507812 C 541.71875 581.222656 541.628906 580.925781 541.570312 580.621094 C 541.507812 580.316406 541.476562 580.011719 541.476562 579.699219 C 541.476562 579.390625 541.507812 579.082031 541.570312 578.777344 C 541.628906 578.472656 541.71875 578.175781 541.835938 577.890625 C 541.957031 577.605469 542.101562 577.332031 542.273438 577.074219 C 542.445312 576.816406 542.644531 576.578125 542.863281 576.355469 C 543.082031 576.136719 543.320312 575.941406 543.578125 575.769531 C 543.835938 575.597656 544.109375 575.449219 544.394531 575.332031 C 544.683594 575.214844 544.976562 575.125 545.28125 575.0625 C 545.585938 575.003906 545.894531 574.972656 546.203125 574.972656 C 546.511719 574.972656 546.820312 575.003906 547.125 575.0625 C 547.429688 575.125 547.726562 575.214844 548.011719 575.332031 C 548.296875 575.449219 548.570312 575.597656 548.828125 575.769531 C 549.085938 575.941406 549.324219 576.136719 549.542969 576.355469 C 549.765625 576.578125 549.960938 576.816406 550.132812 577.074219 C 550.304688 577.332031 550.449219 577.605469 550.570312 577.890625 C 550.6875 578.175781 550.777344 578.472656 550.835938 578.777344 C 550.898438 579.082031 550.929688 579.390625 550.929688 579.699219 Z M 550.929688 579.699219 " fill-opacity="1" fill-rule="nonzero"/></g><g clip-path="url(#0cf88f4f37)"><path fill="#ffffff" d="M 440.824219 502.765625 C 440.824219 503.074219 440.792969 503.382812 440.734375 503.6875 C 440.671875 503.992188 440.582031 504.285156 440.464844 504.574219 C 440.34375 504.859375 440.199219 505.132812 440.027344 505.390625 C 439.855469 505.648438 439.660156 505.886719 439.441406 506.105469 C 439.21875 506.328125 438.980469 506.523438 438.722656 506.695312 C 438.464844 506.867188 438.195312 507.011719 437.90625 507.132812 C 437.621094 507.25 437.324219 507.339844 437.019531 507.402344 C 436.714844 507.460938 436.410156 507.492188 436.097656 507.492188 C 435.789062 507.492188 435.480469 507.460938 435.175781 507.402344 C 434.871094 507.339844 434.578125 507.25 434.289062 507.132812 C 434.003906 507.011719 433.730469 506.867188 433.472656 506.695312 C 433.214844 506.523438 432.976562 506.328125 432.757812 506.105469 C 432.539062 505.886719 432.34375 505.648438 432.171875 505.390625 C 431.996094 505.132812 431.851562 504.859375 431.734375 504.574219 C 431.613281 504.285156 431.523438 503.992188 431.464844 503.6875 C 431.402344 503.382812 431.375 503.074219 431.375 502.765625 C 431.375 502.453125 431.402344 502.144531 431.464844 501.839844 C 431.523438 501.539062 431.613281 501.242188 431.734375 500.953125 C 431.851562 500.667969 431.996094 500.394531 432.171875 500.136719 C 432.34375 499.878906 432.539062 499.640625 432.757812 499.421875 C 432.976562 499.203125 433.214844 499.003906 433.472656 498.832031 C 433.730469 498.660156 434.003906 498.515625 434.289062 498.394531 C 434.578125 498.277344 434.871094 498.1875 435.175781 498.128906 C 435.480469 498.066406 435.789062 498.035156 436.097656 498.035156 C 436.410156 498.035156 436.714844 498.066406 437.019531 498.128906 C 437.324219 498.1875 437.621094 498.277344 437.90625 498.394531 C 438.195312 498.515625 438.464844 498.660156 438.722656 498.832031 C 438.980469 499.003906 439.21875 499.203125 439.441406 499.421875 C 439.660156 499.640625 439.855469 499.878906 440.027344 500.136719 C 440.199219 500.394531 440.34375 500.667969 440.464844 500.953125 C 440.582031 501.242188 440.671875 501.539062 440.734375 501.839844 C 440.792969 502.144531 440.824219 502.453125 440.824219 502.765625 Z M 440.824219 502.765625 " fill-opacity="1" fill-rule="nonzero"/></g><g clip-path="url(#6dcbc82800)"><path fill="#ffffff" d="M 452.519531 574.328125 C 452.519531 574.636719 452.488281 574.945312 452.425781 575.25 C 452.367188 575.554688 452.277344 575.851562 452.15625 576.136719 C 452.039062 576.421875 451.894531 576.695312 451.722656 576.953125 C 451.550781 577.210938 451.351562 577.449219 451.132812 577.671875 C 450.914062 577.890625 450.675781 578.085938 450.417969 578.257812 C 450.160156 578.429688 449.886719 578.578125 449.601562 578.695312 C 449.3125 578.8125 449.019531 578.902344 448.714844 578.964844 C 448.410156 579.023438 448.101562 579.054688 447.792969 579.054688 C 447.480469 579.054688 447.175781 579.023438 446.871094 578.964844 C 446.566406 578.902344 446.269531 578.8125 445.984375 578.695312 C 445.699219 578.578125 445.425781 578.429688 445.167969 578.257812 C 444.910156 578.085938 444.671875 577.890625 444.453125 577.671875 C 444.230469 577.449219 444.035156 577.210938 443.863281 576.953125 C 443.691406 576.695312 443.546875 576.421875 443.425781 576.136719 C 443.308594 575.851562 443.21875 575.554688 443.15625 575.25 C 443.097656 574.945312 443.066406 574.636719 443.066406 574.328125 C 443.066406 574.015625 443.097656 573.710938 443.15625 573.40625 C 443.21875 573.101562 443.308594 572.804688 443.425781 572.519531 C 443.546875 572.230469 443.691406 571.957031 443.863281 571.699219 C 444.035156 571.441406 444.230469 571.203125 444.453125 570.984375 C 444.671875 570.765625 444.910156 570.570312 445.167969 570.394531 C 445.425781 570.222656 445.699219 570.078125 445.984375 569.960938 C 446.269531 569.839844 446.566406 569.75 446.871094 569.691406 C 447.175781 569.628906 447.480469 569.597656 447.792969 569.597656 C 448.101562 569.597656 448.410156 569.628906 448.714844 569.691406 C 449.019531 569.75 449.3125 569.839844 449.601562 569.960938 C 449.886719 570.078125 450.160156 570.222656 450.417969 570.394531 C 450.675781 570.570312 450.914062 570.765625 451.132812 570.984375 C 451.351562 571.203125 451.550781 571.441406 451.722656 571.699219 C 451.894531 571.957031 452.039062 572.230469 452.15625 572.519531 C 452.277344 572.804688 452.367188 573.101562 452.425781 573.40625 C 452.488281 573.710938 452.519531 574.015625 452.519531 574.328125 Z M 452.519531 574.328125 " fill-opacity="1" fill-rule="nonzero"/></g><g clip-path="url(#1af7253400)"><path fill="#ffffff" d="M 342.960938 501.683594 C 342.960938 501.992188 342.933594 502.300781 342.871094 502.605469 C 342.8125 502.910156 342.722656 503.203125 342.601562 503.492188 C 342.484375 503.777344 342.339844 504.050781 342.164062 504.308594 C 341.992188 504.566406 341.796875 504.804688 341.578125 505.023438 C 341.359375 505.246094 341.121094 505.441406 340.863281 505.613281 C 340.605469 505.785156 340.332031 505.929688 340.046875 506.050781 C 339.757812 506.167969 339.464844 506.257812 339.160156 506.320312 C 338.855469 506.378906 338.546875 506.410156 338.238281 506.410156 C 337.925781 506.410156 337.621094 506.378906 337.316406 506.320312 C 337.011719 506.257812 336.714844 506.167969 336.429688 506.050781 C 336.140625 505.929688 335.871094 505.785156 335.613281 505.613281 C 335.355469 505.441406 335.113281 505.246094 334.894531 505.023438 C 334.675781 504.804688 334.480469 504.566406 334.308594 504.308594 C 334.136719 504.050781 333.988281 503.777344 333.871094 503.492188 C 333.753906 503.203125 333.664062 502.910156 333.601562 502.605469 C 333.542969 502.300781 333.511719 501.992188 333.511719 501.683594 C 333.511719 501.371094 333.542969 501.0625 333.601562 500.757812 C 333.664062 500.453125 333.753906 500.160156 333.871094 499.871094 C 333.988281 499.585938 334.136719 499.3125 334.308594 499.054688 C 334.480469 498.796875 334.675781 498.558594 334.894531 498.339844 C 335.113281 498.117188 335.355469 497.921875 335.613281 497.75 C 335.871094 497.578125 336.140625 497.433594 336.429688 497.3125 C 336.714844 497.195312 337.011719 497.105469 337.316406 497.042969 C 337.621094 496.984375 337.925781 496.953125 338.238281 496.953125 C 338.546875 496.953125 338.855469 496.984375 339.160156 497.042969 C 339.464844 497.105469 339.757812 497.195312 340.046875 497.3125 C 340.332031 497.433594 340.605469 497.578125 340.863281 497.75 C 341.121094 497.921875 341.359375 498.117188 341.578125 498.339844 C 341.796875 498.558594 341.992188 498.796875 342.164062 499.054688 C 342.339844 499.3125 342.484375 499.585938 342.601562 499.871094 C 342.722656 500.160156 342.8125 500.453125 342.871094 500.757812 C 342.933594 501.0625 342.960938 501.371094 342.960938 501.683594 Z M 342.960938 501.683594 " fill-opacity="1" fill-rule="nonzero"/></g><g clip-path="url(#1406486585)"><path fill="#ffffff" d="M 325.613281 573.492188 C 325.613281 573.800781 325.582031 574.109375 325.523438 574.414062 C 325.460938 574.71875 325.371094 575.015625 325.253906 575.300781 C 325.132812 575.585938 324.988281 575.859375 324.816406 576.117188 C 324.644531 576.375 324.449219 576.617188 324.226562 576.835938 C 324.007812 577.054688 323.769531 577.25 323.511719 577.421875 C 323.253906 577.59375 322.980469 577.742188 322.695312 577.859375 C 322.410156 577.980469 322.113281 578.066406 321.808594 578.128906 C 321.503906 578.1875 321.199219 578.21875 320.886719 578.21875 C 320.578125 578.21875 320.269531 578.1875 319.964844 578.128906 C 319.660156 578.066406 319.367188 577.980469 319.078125 577.859375 C 318.792969 577.742188 318.519531 577.59375 318.261719 577.421875 C 318.003906 577.25 317.765625 577.054688 317.546875 576.835938 C 317.328125 576.617188 317.128906 576.375 316.957031 576.117188 C 316.785156 575.859375 316.640625 575.585938 316.523438 575.300781 C 316.402344 575.015625 316.3125 574.71875 316.253906 574.414062 C 316.191406 574.109375 316.160156 573.800781 316.160156 573.492188 C 316.160156 573.179688 316.191406 572.875 316.253906 572.570312 C 316.3125 572.265625 316.402344 571.96875 316.523438 571.683594 C 316.640625 571.394531 316.785156 571.125 316.957031 570.863281 C 317.128906 570.605469 317.328125 570.367188 317.546875 570.148438 C 317.765625 569.929688 318.003906 569.734375 318.261719 569.5625 C 318.519531 569.386719 318.792969 569.242188 319.078125 569.125 C 319.367188 569.003906 319.660156 568.914062 319.964844 568.855469 C 320.269531 568.792969 320.578125 568.765625 320.886719 568.765625 C 321.199219 568.765625 321.503906 568.792969 321.808594 568.855469 C 322.113281 568.914062 322.410156 569.003906 322.695312 569.125 C 322.980469 569.242188 323.253906 569.386719 323.511719 569.5625 C 323.769531 569.734375 324.007812 569.929688 324.226562 570.148438 C 324.449219 570.367188 324.644531 570.605469 324.816406 570.863281 C 324.988281 571.125 325.132812 571.394531 325.253906 571.683594 C 325.371094 571.96875 325.460938 572.265625 325.523438 572.570312 C 325.582031 572.875 325.613281 573.179688 325.613281 573.492188 Z M 325.613281 573.492188 " fill-opacity="1" fill-rule="nonzero"/></g><g clip-path="url(#bdefd12350)"><path fill="#ffffff" d="M 210.035156 487.847656 C 210.035156 488.160156 210.003906 488.464844 209.945312 488.769531 C 209.882812 489.074219 209.792969 489.371094 209.675781 489.65625 C 209.554688 489.945312 209.410156 490.214844 209.238281 490.476562 C 209.066406 490.734375 208.871094 490.972656 208.652344 491.191406 C 208.429688 491.410156 208.191406 491.605469 207.933594 491.78125 C 207.675781 491.953125 207.40625 492.097656 207.117188 492.214844 C 206.832031 492.335938 206.535156 492.425781 206.230469 492.484375 C 205.925781 492.546875 205.621094 492.574219 205.308594 492.574219 C 205 492.574219 204.691406 492.546875 204.386719 492.484375 C 204.082031 492.425781 203.789062 492.335938 203.5 492.214844 C 203.214844 492.097656 202.941406 491.953125 202.683594 491.78125 C 202.425781 491.605469 202.1875 491.410156 201.96875 491.191406 C 201.75 490.972656 201.554688 490.734375 201.378906 490.476562 C 201.207031 490.214844 201.0625 489.945312 200.945312 489.65625 C 200.824219 489.371094 200.734375 489.074219 200.675781 488.769531 C 200.613281 488.464844 200.585938 488.160156 200.585938 487.847656 C 200.585938 487.539062 200.613281 487.230469 200.675781 486.925781 C 200.734375 486.621094 200.824219 486.324219 200.945312 486.039062 C 201.0625 485.753906 201.207031 485.480469 201.378906 485.222656 C 201.554688 484.964844 201.75 484.722656 201.96875 484.503906 C 202.1875 484.285156 202.425781 484.089844 202.683594 483.917969 C 202.941406 483.746094 203.214844 483.597656 203.5 483.480469 C 203.789062 483.363281 204.082031 483.273438 204.386719 483.210938 C 204.691406 483.152344 205 483.121094 205.308594 483.121094 C 205.621094 483.121094 205.925781 483.152344 206.230469 483.210938 C 206.535156 483.273438 206.832031 483.363281 207.117188 483.480469 C 207.40625 483.597656 207.675781 483.746094 207.933594 483.917969 C 208.191406 484.089844 208.429688 484.285156 208.652344 484.503906 C 208.871094 484.722656 209.066406 484.964844 209.238281 485.222656 C 209.410156 485.480469 209.554688 485.753906 209.675781 486.039062 C 209.792969 486.324219 209.882812 486.621094 209.945312 486.925781 C 210.003906 487.230469 210.035156 487.539062 210.035156 487.847656 Z M 210.035156 487.847656 " fill-opacity="1" fill-rule="nonzero"/></g><g clip-path="url(#4ad111a7e4)"><path fill="#ffffff" d="M 214.21875 579.960938 C 214.21875 580.273438 214.1875 580.582031 214.128906 580.886719 C 214.066406 581.191406 213.976562 581.484375 213.859375 581.773438 C 213.742188 582.058594 213.59375 582.332031 213.421875 582.589844 C 213.25 582.847656 213.054688 583.085938 212.835938 583.304688 C 212.617188 583.527344 212.378906 583.722656 212.121094 583.894531 C 211.859375 584.066406 211.589844 584.210938 211.300781 584.332031 C 211.015625 584.449219 210.71875 584.539062 210.414062 584.601562 C 210.113281 584.660156 209.804688 584.691406 209.492188 584.691406 C 209.183594 584.691406 208.875 584.660156 208.570312 584.601562 C 208.269531 584.539062 207.972656 584.449219 207.6875 584.332031 C 207.398438 584.210938 207.125 584.066406 206.867188 583.894531 C 206.609375 583.722656 206.371094 583.527344 206.152344 583.304688 C 205.933594 583.085938 205.738281 582.847656 205.566406 582.589844 C 205.394531 582.332031 205.246094 582.058594 205.128906 581.773438 C 205.007812 581.484375 204.921875 581.191406 204.859375 580.886719 C 204.800781 580.582031 204.769531 580.273438 204.769531 579.960938 C 204.769531 579.652344 204.800781 579.34375 204.859375 579.039062 C 204.921875 578.734375 205.007812 578.441406 205.128906 578.152344 C 205.246094 577.867188 205.394531 577.59375 205.566406 577.335938 C 205.738281 577.078125 205.933594 576.839844 206.152344 576.621094 C 206.371094 576.398438 206.609375 576.203125 206.867188 576.03125 C 207.125 575.859375 207.398438 575.714844 207.6875 575.59375 C 207.972656 575.476562 208.269531 575.386719 208.570312 575.324219 C 208.875 575.265625 209.183594 575.234375 209.492188 575.234375 C 209.804688 575.234375 210.113281 575.265625 210.414062 575.324219 C 210.71875 575.386719 211.015625 575.476562 211.300781 575.59375 C 211.589844 575.714844 211.859375 575.859375 212.121094 576.03125 C 212.378906 576.203125 212.617188 576.398438 212.835938 576.621094 C 213.054688 576.839844 213.25 577.078125 213.421875 577.335938 C 213.59375 577.59375 213.742188 577.867188 213.859375 578.152344 C 213.976562 578.441406 214.066406 578.734375 214.128906 579.039062 C 214.1875 579.34375 214.21875 579.652344 214.21875 579.960938 Z M 214.21875 579.960938 " fill-opacity="1" fill-rule="nonzero"/></g><g clip-path="url(#c78ccbb3a6)"><path fill="#ffffff" d="M 546.785156 543.355469 C 546.785156 543.667969 546.753906 543.976562 546.691406 544.28125 C 546.632812 544.585938 546.542969 544.878906 546.425781 545.167969 C 546.304688 545.453125 546.160156 545.726562 545.988281 545.984375 C 545.816406 546.242188 545.621094 546.480469 545.398438 546.699219 C 545.179688 546.921875 544.941406 547.117188 544.683594 547.289062 C 544.425781 547.460938 544.152344 547.605469 543.867188 547.726562 C 543.582031 547.84375 543.285156 547.933594 542.980469 547.996094 C 542.675781 548.054688 542.367188 548.085938 542.058594 548.085938 C 541.75 548.085938 541.441406 548.054688 541.136719 547.996094 C 540.832031 547.933594 540.539062 547.84375 540.25 547.726562 C 539.964844 547.605469 539.691406 547.460938 539.433594 547.289062 C 539.175781 547.117188 538.9375 546.921875 538.71875 546.699219 C 538.5 546.480469 538.300781 546.242188 538.128906 545.984375 C 537.957031 545.726562 537.8125 545.453125 537.691406 545.167969 C 537.574219 544.878906 537.484375 544.585938 537.425781 544.28125 C 537.363281 543.976562 537.332031 543.667969 537.332031 543.355469 C 537.332031 543.046875 537.363281 542.738281 537.425781 542.433594 C 537.484375 542.128906 537.574219 541.835938 537.691406 541.546875 C 537.8125 541.261719 537.957031 540.988281 538.128906 540.730469 C 538.300781 540.472656 538.5 540.234375 538.71875 540.015625 C 538.9375 539.792969 539.175781 539.597656 539.433594 539.425781 C 539.691406 539.253906 539.964844 539.109375 540.25 538.988281 C 540.539062 538.871094 540.832031 538.78125 541.136719 538.71875 C 541.441406 538.660156 541.75 538.628906 542.058594 538.628906 C 542.367188 538.628906 542.675781 538.660156 542.980469 538.71875 C 543.285156 538.78125 543.582031 538.871094 543.867188 538.988281 C 544.152344 539.109375 544.425781 539.253906 544.683594 539.425781 C 544.941406 539.597656 545.179688 539.792969 545.398438 540.015625 C 545.621094 540.234375 545.816406 540.472656 545.988281 540.730469 C 546.160156 540.988281 546.304688 541.261719 546.425781 541.546875 C 546.542969 541.835938 546.632812 542.128906 546.691406 542.433594 C 546.753906 542.738281 546.785156 543.046875 546.785156 543.355469 Z M 546.785156 543.355469 " fill-opacity="1" fill-rule="nonzero"/></g><g clip-path="url(#148b2cfe27)"><path fill="#ffffff" d="M 235.785156 436.398438 C 235.785156 436.707031 235.753906 437.015625 235.695312 437.320312 C 235.632812 437.625 235.542969 437.921875 235.425781 438.207031 C 235.308594 438.496094 235.160156 438.765625 234.988281 439.023438 C 234.816406 439.285156 234.621094 439.523438 234.402344 439.742188 C 234.183594 439.960938 233.941406 440.15625 233.683594 440.328125 C 233.425781 440.503906 233.15625 440.648438 232.867188 440.765625 C 232.582031 440.886719 232.285156 440.976562 231.980469 441.035156 C 231.675781 441.097656 231.371094 441.125 231.058594 441.125 C 230.75 441.125 230.441406 441.097656 230.136719 441.035156 C 229.832031 440.976562 229.539062 440.886719 229.25 440.765625 C 228.964844 440.648438 228.691406 440.503906 228.433594 440.328125 C 228.175781 440.15625 227.9375 439.960938 227.71875 439.742188 C 227.5 439.523438 227.304688 439.285156 227.132812 439.023438 C 226.957031 438.765625 226.8125 438.496094 226.695312 438.207031 C 226.574219 437.921875 226.484375 437.625 226.425781 437.320312 C 226.363281 437.015625 226.335938 436.707031 226.335938 436.398438 C 226.335938 436.089844 226.363281 435.78125 226.425781 435.476562 C 226.484375 435.171875 226.574219 434.875 226.695312 434.589844 C 226.8125 434.300781 226.957031 434.03125 227.132812 433.773438 C 227.304688 433.511719 227.5 433.273438 227.71875 433.054688 C 227.9375 432.835938 228.175781 432.640625 228.433594 432.46875 C 228.691406 432.292969 228.964844 432.148438 229.25 432.03125 C 229.539062 431.910156 229.832031 431.820312 230.136719 431.761719 C 230.441406 431.699219 230.75 431.671875 231.058594 431.671875 C 231.371094 431.671875 231.675781 431.699219 231.980469 431.761719 C 232.285156 431.820312 232.582031 431.910156 232.867188 432.03125 C 233.15625 432.148438 233.425781 432.292969 233.683594 432.46875 C 233.941406 432.640625 234.183594 432.835938 234.402344 433.054688 C 234.621094 433.273438 234.816406 433.511719 234.988281 433.773438 C 235.160156 434.03125 235.308594 434.300781 235.425781 434.589844 C 235.542969 434.875 235.632812 435.171875 235.695312 435.476562 C 235.753906 435.78125 235.785156 436.089844 235.785156 436.398438 Z M 235.785156 436.398438 " fill-opacity="1" fill-rule="nonzero"/></g><g clip-path="url(#34a3baaef0)"><path fill="#ffffff" d="M 326.113281 444.429688 C 326.113281 444.738281 326.082031 445.046875 326.023438 445.351562 C 325.960938 445.65625 325.871094 445.953125 325.753906 446.238281 C 325.636719 446.527344 325.488281 446.796875 325.316406 447.054688 C 325.144531 447.3125 324.949219 447.554688 324.730469 447.773438 C 324.511719 447.992188 324.273438 448.1875 324.011719 448.359375 C 323.753906 448.53125 323.484375 448.679688 323.195312 448.796875 C 322.910156 448.917969 322.613281 449.007812 322.308594 449.066406 C 322.007812 449.128906 321.699219 449.15625 321.386719 449.15625 C 321.078125 449.15625 320.769531 449.128906 320.464844 449.066406 C 320.164062 449.007812 319.867188 448.917969 319.582031 448.796875 C 319.292969 448.679688 319.019531 448.53125 318.761719 448.359375 C 318.503906 448.1875 318.265625 447.992188 318.046875 447.773438 C 317.828125 447.554688 317.632812 447.3125 317.460938 447.054688 C 317.289062 446.796875 317.140625 446.527344 317.023438 446.238281 C 316.902344 445.953125 316.816406 445.65625 316.753906 445.351562 C 316.695312 445.046875 316.664062 444.738281 316.664062 444.429688 C 316.664062 444.117188 316.695312 443.8125 316.753906 443.507812 C 316.816406 443.203125 316.902344 442.90625 317.023438 442.621094 C 317.140625 442.332031 317.289062 442.0625 317.460938 441.804688 C 317.632812 441.542969 317.828125 441.304688 318.046875 441.085938 C 318.265625 440.867188 318.503906 440.671875 318.761719 440.5 C 319.019531 440.324219 319.292969 440.179688 319.582031 440.0625 C 319.867188 439.941406 320.164062 439.851562 320.464844 439.792969 C 320.769531 439.730469 321.078125 439.703125 321.386719 439.703125 C 321.699219 439.703125 322.007812 439.730469 322.308594 439.792969 C 322.613281 439.851562 322.910156 439.941406 323.195312 440.0625 C 323.484375 440.179688 323.753906 440.324219 324.011719 440.5 C 324.273438 440.671875 324.511719 440.867188 324.730469 441.085938 C 324.949219 441.304688 325.144531 441.542969 325.316406 441.804688 C 325.488281 442.0625 325.636719 442.332031 325.753906 442.621094 C 325.871094 442.90625 325.960938 443.203125 326.023438 443.507812 C 326.082031 443.8125 326.113281 444.117188 326.113281 444.429688 Z M 326.113281 444.429688 " fill-opacity="1" fill-rule="nonzero"/></g><g clip-path="url(#4484cca99a)"><path fill="#ffffff" d="M 395.988281 446.675781 C 395.988281 446.984375 395.960938 447.292969 395.898438 447.597656 C 395.839844 447.902344 395.75 448.195312 395.628906 448.484375 C 395.511719 448.769531 395.367188 449.042969 395.195312 449.300781 C 395.019531 449.558594 394.824219 449.796875 394.605469 450.015625 C 394.386719 450.238281 394.148438 450.433594 393.890625 450.605469 C 393.632812 450.777344 393.359375 450.921875 393.074219 451.042969 C 392.785156 451.160156 392.492188 451.25 392.1875 451.3125 C 391.882812 451.371094 391.574219 451.402344 391.265625 451.402344 C 390.953125 451.402344 390.648438 451.371094 390.34375 451.3125 C 390.039062 451.25 389.742188 451.160156 389.457031 451.042969 C 389.167969 450.921875 388.898438 450.777344 388.640625 450.605469 C 388.382812 450.433594 388.144531 450.238281 387.921875 450.015625 C 387.703125 449.796875 387.507812 449.558594 387.335938 449.300781 C 387.164062 449.042969 387.019531 448.769531 386.898438 448.484375 C 386.78125 448.195312 386.691406 447.902344 386.628906 447.597656 C 386.570312 447.292969 386.539062 446.984375 386.539062 446.675781 C 386.539062 446.363281 386.570312 446.054688 386.628906 445.75 C 386.691406 445.445312 386.78125 445.152344 386.898438 444.863281 C 387.019531 444.578125 387.164062 444.304688 387.335938 444.046875 C 387.507812 443.789062 387.703125 443.550781 387.921875 443.332031 C 388.144531 443.113281 388.382812 442.914062 388.640625 442.742188 C 388.898438 442.570312 389.167969 442.425781 389.457031 442.304688 C 389.742188 442.1875 390.039062 442.097656 390.34375 442.035156 C 390.648438 441.976562 390.953125 441.945312 391.265625 441.945312 C 391.574219 441.945312 391.882812 441.976562 392.1875 442.035156 C 392.492188 442.097656 392.785156 442.1875 393.074219 442.304688 C 393.359375 442.425781 393.632812 442.570312 393.890625 442.742188 C 394.148438 442.914062 394.386719 443.113281 394.605469 443.332031 C 394.824219 443.550781 395.019531 443.789062 395.195312 444.046875 C 395.367188 444.304688 395.511719 444.578125 395.628906 444.863281 C 395.75 445.152344 395.839844 445.445312 395.898438 445.75 C 395.960938 446.054688 395.988281 446.363281 395.988281 446.675781 Z M 395.988281 446.675781 " fill-opacity="1" fill-rule="nonzero"/></g><g clip-path="url(#38aa25ee38)"><path fill="#ffffff" d="M 460.34375 454.902344 C 460.34375 455.214844 460.316406 455.523438 460.253906 455.828125 C 460.195312 456.132812 460.105469 456.425781 459.984375 456.714844 C 459.867188 457 459.722656 457.273438 459.550781 457.53125 C 459.375 457.789062 459.179688 458.027344 458.960938 458.246094 C 458.742188 458.464844 458.503906 458.664062 458.246094 458.835938 C 457.988281 459.007812 457.714844 459.152344 457.429688 459.273438 C 457.140625 459.390625 456.847656 459.480469 456.542969 459.542969 C 456.238281 459.601562 455.929688 459.632812 455.621094 459.632812 C 455.308594 459.632812 455.003906 459.601562 454.699219 459.542969 C 454.394531 459.480469 454.097656 459.390625 453.8125 459.273438 C 453.523438 459.152344 453.253906 459.007812 452.996094 458.835938 C 452.738281 458.664062 452.5 458.464844 452.277344 458.246094 C 452.058594 458.027344 451.863281 457.789062 451.691406 457.53125 C 451.519531 457.273438 451.375 457 451.253906 456.714844 C 451.136719 456.425781 451.046875 456.132812 450.984375 455.828125 C 450.925781 455.523438 450.894531 455.214844 450.894531 454.902344 C 450.894531 454.59375 450.925781 454.285156 450.984375 453.980469 C 451.046875 453.675781 451.136719 453.382812 451.253906 453.09375 C 451.375 452.808594 451.519531 452.535156 451.691406 452.277344 C 451.863281 452.019531 452.058594 451.78125 452.277344 451.5625 C 452.5 451.339844 452.738281 451.144531 452.996094 450.972656 C 453.253906 450.800781 453.523438 450.65625 453.8125 450.535156 C 454.097656 450.417969 454.394531 450.328125 454.699219 450.265625 C 455.003906 450.207031 455.308594 450.175781 455.621094 450.175781 C 455.929688 450.175781 456.238281 450.207031 456.542969 450.265625 C 456.847656 450.328125 457.140625 450.417969 457.429688 450.535156 C 457.714844 450.65625 457.988281 450.800781 458.246094 450.972656 C 458.503906 451.144531 458.742188 451.339844 458.960938 451.5625 C 459.179688 451.78125 459.375 452.019531 459.550781 452.277344 C 459.722656 452.535156 459.867188 452.808594 459.984375 453.09375 C 460.105469 453.382812 460.195312 453.675781 460.253906 453.980469 C 460.316406 454.285156 460.34375 454.59375 460.34375 454.902344 Z M 460.34375 454.902344 " fill-opacity="1" fill-rule="nonzero"/></g><g clip-path="url(#645f2bd89a)"><path fill="#ffffff" d="M 533.261719 460.410156 C 533.261719 460.722656 533.230469 461.03125 533.167969 461.335938 C 533.109375 461.640625 533.019531 461.933594 532.902344 462.222656 C 532.78125 462.507812 532.636719 462.78125 532.464844 463.039062 C 532.292969 463.296875 532.097656 463.535156 531.875 463.753906 C 531.65625 463.976562 531.417969 464.171875 531.160156 464.34375 C 530.902344 464.515625 530.628906 464.660156 530.34375 464.78125 C 530.058594 464.898438 529.761719 464.988281 529.457031 465.050781 C 529.152344 465.109375 528.84375 465.140625 528.535156 465.140625 C 528.226562 465.140625 527.917969 465.109375 527.613281 465.050781 C 527.308594 464.988281 527.015625 464.898438 526.726562 464.78125 C 526.441406 464.660156 526.167969 464.515625 525.910156 464.34375 C 525.652344 464.171875 525.414062 463.976562 525.195312 463.753906 C 524.976562 463.535156 524.777344 463.296875 524.605469 463.039062 C 524.433594 462.78125 524.289062 462.507812 524.167969 462.222656 C 524.050781 461.933594 523.960938 461.640625 523.902344 461.335938 C 523.839844 461.03125 523.808594 460.722656 523.808594 460.410156 C 523.808594 460.101562 523.839844 459.792969 523.902344 459.488281 C 523.960938 459.183594 524.050781 458.890625 524.167969 458.601562 C 524.289062 458.316406 524.433594 458.042969 524.605469 457.785156 C 524.777344 457.527344 524.976562 457.289062 525.195312 457.070312 C 525.414062 456.847656 525.652344 456.652344 525.910156 456.480469 C 526.167969 456.308594 526.441406 456.164062 526.726562 456.042969 C 527.015625 455.925781 527.308594 455.835938 527.613281 455.773438 C 527.917969 455.714844 528.226562 455.683594 528.535156 455.683594 C 528.84375 455.683594 529.152344 455.714844 529.457031 455.773438 C 529.761719 455.835938 530.058594 455.925781 530.34375 456.042969 C 530.628906 456.164062 530.902344 456.308594 531.160156 456.480469 C 531.417969 456.652344 531.65625 456.847656 531.875 457.070312 C 532.097656 457.289062 532.292969 457.527344 532.464844 457.785156 C 532.636719 458.042969 532.78125 458.316406 532.902344 458.601562 C 533.019531 458.890625 533.109375 459.183594 533.167969 459.488281 C 533.230469 459.792969 533.261719 460.101562 533.261719 460.410156 Z M 533.261719 460.410156 " fill-opacity="1" fill-rule="nonzero"/></g><g clip-path="url(#a1d07ab7cb)"><path fill="#ffffff" d="M 566.773438 469.382812 C 566.773438 469.691406 566.746094 470 566.683594 470.304688 C 566.625 470.609375 566.535156 470.90625 566.414062 471.191406 C 566.296875 471.476562 566.152344 471.75 565.980469 472.007812 C 565.804688 472.265625 565.609375 472.507812 565.390625 472.726562 C 565.171875 472.945312 564.933594 473.140625 564.675781 473.3125 C 564.417969 473.484375 564.144531 473.632812 563.859375 473.75 C 563.570312 473.867188 563.277344 473.957031 562.972656 474.019531 C 562.667969 474.078125 562.359375 474.109375 562.050781 474.109375 C 561.738281 474.109375 561.433594 474.078125 561.128906 474.019531 C 560.824219 473.957031 560.527344 473.867188 560.242188 473.75 C 559.953125 473.632812 559.683594 473.484375 559.425781 473.3125 C 559.167969 473.140625 558.929688 472.945312 558.707031 472.726562 C 558.488281 472.507812 558.292969 472.265625 558.121094 472.007812 C 557.949219 471.75 557.804688 471.476562 557.683594 471.191406 C 557.566406 470.90625 557.476562 470.609375 557.414062 470.304688 C 557.355469 470 557.324219 469.691406 557.324219 469.382812 C 557.324219 469.070312 557.355469 468.765625 557.414062 468.460938 C 557.476562 468.15625 557.566406 467.859375 557.683594 467.574219 C 557.804688 467.285156 557.949219 467.015625 558.121094 466.753906 C 558.292969 466.496094 558.488281 466.257812 558.707031 466.039062 C 558.929688 465.820312 559.167969 465.625 559.425781 465.449219 C 559.683594 465.277344 559.953125 465.132812 560.242188 465.015625 C 560.527344 464.894531 560.824219 464.804688 561.128906 464.746094 C 561.433594 464.683594 561.738281 464.65625 562.050781 464.65625 C 562.359375 464.65625 562.667969 464.683594 562.972656 464.746094 C 563.277344 464.804688 563.570312 464.894531 563.859375 465.015625 C 564.144531 465.132812 564.417969 465.277344 564.675781 465.449219 C 564.933594 465.625 565.171875 465.820312 565.390625 466.039062 C 565.609375 466.257812 565.804688 466.496094 565.980469 466.753906 C 566.152344 467.015625 566.296875 467.285156 566.414062 467.574219 C 566.535156 467.859375 566.625 468.15625 566.683594 468.460938 C 566.746094 468.765625 566.773438 469.070312 566.773438 469.382812 Z M 566.773438 469.382812 " fill-opacity="1" fill-rule="nonzero"/></g><g clip-path="url(#7aa45a4003)"><path fill="#ffffff" d="M 407.992188 338.472656 C 407.992188 338.785156 407.964844 339.089844 407.902344 339.394531 C 407.84375 339.699219 407.753906 339.996094 407.632812 340.28125 C 407.515625 340.570312 407.371094 340.84375 407.199219 341.101562 C 407.023438 341.359375 406.828125 341.597656 406.609375 341.816406 C 406.390625 342.035156 406.152344 342.230469 405.894531 342.40625 C 405.636719 342.578125 405.363281 342.722656 405.078125 342.839844 C 404.789062 342.960938 404.496094 343.050781 404.191406 343.109375 C 403.886719 343.171875 403.578125 343.203125 403.269531 343.203125 C 402.957031 343.203125 402.652344 343.171875 402.347656 343.109375 C 402.042969 343.050781 401.746094 342.960938 401.460938 342.839844 C 401.171875 342.722656 400.902344 342.578125 400.644531 342.40625 C 400.386719 342.230469 400.148438 342.035156 399.925781 341.816406 C 399.707031 341.597656 399.511719 341.359375 399.339844 341.101562 C 399.167969 340.84375 399.023438 340.570312 398.902344 340.28125 C 398.785156 339.996094 398.695312 339.699219 398.632812 339.394531 C 398.574219 339.089844 398.542969 338.785156 398.542969 338.472656 C 398.542969 338.164062 398.574219 337.855469 398.632812 337.550781 C 398.695312 337.246094 398.785156 336.949219 398.902344 336.664062 C 399.023438 336.378906 399.167969 336.105469 399.339844 335.847656 C 399.511719 335.589844 399.707031 335.351562 399.925781 335.128906 C 400.148438 334.910156 400.386719 334.714844 400.644531 334.542969 C 400.902344 334.371094 401.171875 334.222656 401.460938 334.105469 C 401.746094 333.988281 402.042969 333.898438 402.347656 333.835938 C 402.652344 333.777344 402.957031 333.746094 403.269531 333.746094 C 403.578125 333.746094 403.886719 333.777344 404.191406 333.835938 C 404.496094 333.898438 404.789062 333.988281 405.078125 334.105469 C 405.363281 334.222656 405.636719 334.371094 405.894531 334.542969 C 406.152344 334.714844 406.390625 334.910156 406.609375 335.128906 C 406.828125 335.351562 407.023438 335.589844 407.199219 335.847656 C 407.371094 336.105469 407.515625 336.378906 407.632812 336.664062 C 407.753906 336.949219 407.84375 337.246094 407.902344 337.550781 C 407.964844 337.855469 407.992188 338.164062 407.992188 338.472656 Z M 407.992188 338.472656 " fill-opacity="1" fill-rule="nonzero"/></g><g clip-path="url(#5458f6f8cc)"><path fill="#ffffff" d="M 412.058594 386.261719 C 412.058594 386.574219 412.027344 386.878906 411.96875 387.183594 C 411.90625 387.488281 411.816406 387.785156 411.699219 388.070312 C 411.582031 388.359375 411.433594 388.628906 411.261719 388.886719 C 411.089844 389.148438 410.894531 389.386719 410.675781 389.605469 C 410.457031 389.824219 410.21875 390.019531 409.957031 390.191406 C 409.699219 390.367188 409.429688 390.511719 409.140625 390.628906 C 408.855469 390.75 408.558594 390.839844 408.253906 390.898438 C 407.953125 390.960938 407.644531 390.988281 407.332031 390.988281 C 407.023438 390.988281 406.714844 390.960938 406.410156 390.898438 C 406.109375 390.839844 405.8125 390.75 405.527344 390.628906 C 405.238281 390.511719 404.964844 390.367188 404.707031 390.191406 C 404.449219 390.019531 404.210938 389.824219 403.992188 389.605469 C 403.773438 389.386719 403.578125 389.148438 403.40625 388.886719 C 403.234375 388.628906 403.085938 388.359375 402.96875 388.070312 C 402.847656 387.785156 402.761719 387.488281 402.699219 387.183594 C 402.640625 386.878906 402.609375 386.574219 402.609375 386.261719 C 402.609375 385.953125 402.640625 385.644531 402.699219 385.339844 C 402.761719 385.035156 402.847656 384.738281 402.96875 384.453125 C 403.085938 384.164062 403.234375 383.894531 403.40625 383.636719 C 403.578125 383.378906 403.773438 383.136719 403.992188 382.917969 C 404.210938 382.699219 404.449219 382.503906 404.707031 382.332031 C 404.964844 382.160156 405.238281 382.011719 405.527344 381.894531 C 405.8125 381.773438 406.109375 381.683594 406.410156 381.625 C 406.714844 381.5625 407.023438 381.535156 407.332031 381.535156 C 407.644531 381.535156 407.953125 381.5625 408.253906 381.625 C 408.558594 381.683594 408.855469 381.773438 409.140625 381.894531 C 409.429688 382.011719 409.699219 382.160156 409.957031 382.332031 C 410.21875 382.503906 410.457031 382.699219 410.675781 382.917969 C 410.894531 383.136719 411.089844 383.378906 411.261719 383.636719 C 411.433594 383.894531 411.582031 384.164062 411.699219 384.453125 C 411.816406 384.738281 411.90625 385.035156 411.96875 385.339844 C 412.027344 385.644531 412.058594 385.953125 412.058594 386.261719 Z M 412.058594 386.261719 " fill-opacity="1" fill-rule="nonzero"/></g><g clip-path="url(#e1c7c21235)"><path fill="#ffffff" d="M 397.070312 416.332031 C 397.070312 416.644531 397.042969 416.949219 396.980469 417.253906 C 396.921875 417.558594 396.832031 417.855469 396.710938 418.140625 C 396.59375 418.429688 396.449219 418.703125 396.277344 418.960938 C 396.101562 419.21875 395.90625 419.457031 395.6875 419.675781 C 395.46875 419.894531 395.230469 420.089844 394.972656 420.265625 C 394.714844 420.4375 394.441406 420.582031 394.15625 420.699219 C 393.867188 420.820312 393.574219 420.910156 393.269531 420.96875 C 392.964844 421.03125 392.65625 421.058594 392.347656 421.058594 C 392.035156 421.058594 391.730469 421.03125 391.425781 420.96875 C 391.121094 420.910156 390.824219 420.820312 390.539062 420.699219 C 390.25 420.582031 389.980469 420.4375 389.722656 420.265625 C 389.464844 420.089844 389.226562 419.894531 389.003906 419.675781 C 388.785156 419.457031 388.589844 419.21875 388.417969 418.960938 C 388.246094 418.703125 388.101562 418.429688 387.980469 418.140625 C 387.863281 417.855469 387.773438 417.558594 387.710938 417.253906 C 387.652344 416.949219 387.621094 416.644531 387.621094 416.332031 C 387.621094 416.023438 387.652344 415.714844 387.710938 415.410156 C 387.773438 415.105469 387.863281 414.808594 387.980469 414.523438 C 388.101562 414.238281 388.246094 413.964844 388.417969 413.707031 C 388.589844 413.449219 388.785156 413.210938 389.003906 412.988281 C 389.226562 412.769531 389.464844 412.574219 389.722656 412.402344 C 389.980469 412.230469 390.25 412.082031 390.539062 411.964844 C 390.824219 411.847656 391.121094 411.757812 391.425781 411.695312 C 391.730469 411.636719 392.035156 411.605469 392.347656 411.605469 C 392.65625 411.605469 392.964844 411.636719 393.269531 411.695312 C 393.574219 411.757812 393.867188 411.847656 394.15625 411.964844 C 394.441406 412.082031 394.714844 412.230469 394.972656 412.402344 C 395.230469 412.574219 395.46875 412.769531 395.6875 412.988281 C 395.90625 413.210938 396.101562 413.449219 396.277344 413.707031 C 396.449219 413.964844 396.59375 414.238281 396.710938 414.523438 C 396.832031 414.808594 396.921875 415.105469 396.980469 415.410156 C 397.042969 415.714844 397.070312 416.023438 397.070312 416.332031 Z M 397.070312 416.332031 " fill-opacity="1" fill-rule="nonzero"/></g><g clip-path="url(#e1e5943b6a)"><path fill="#ffffff" d="M 401.3125 494.453125 C 401.3125 494.765625 401.28125 495.074219 401.222656 495.375 C 401.160156 495.679688 401.070312 495.976562 400.953125 496.265625 C 400.832031 496.550781 400.6875 496.824219 400.515625 497.082031 C 400.34375 497.339844 400.148438 497.578125 399.929688 497.796875 C 399.707031 498.015625 399.46875 498.214844 399.210938 498.386719 C 398.953125 498.558594 398.679688 498.703125 398.394531 498.824219 C 398.109375 498.941406 397.8125 499.03125 397.507812 499.089844 C 397.203125 499.152344 396.898438 499.183594 396.585938 499.183594 C 396.277344 499.183594 395.96875 499.152344 395.664062 499.089844 C 395.359375 499.03125 395.066406 498.941406 394.777344 498.824219 C 394.492188 498.703125 394.21875 498.558594 393.960938 498.386719 C 393.703125 498.214844 393.464844 498.015625 393.246094 497.796875 C 393.027344 497.578125 392.828125 497.339844 392.65625 497.082031 C 392.484375 496.824219 392.339844 496.550781 392.222656 496.265625 C 392.101562 495.976562 392.011719 495.679688 391.953125 495.375 C 391.890625 495.074219 391.863281 494.765625 391.863281 494.453125 C 391.863281 494.144531 391.890625 493.835938 391.953125 493.53125 C 392.011719 493.226562 392.101562 492.933594 392.222656 492.644531 C 392.339844 492.359375 392.484375 492.085938 392.65625 491.828125 C 392.828125 491.570312 393.027344 491.332031 393.246094 491.113281 C 393.464844 490.890625 393.703125 490.695312 393.960938 490.523438 C 394.21875 490.351562 394.492188 490.207031 394.777344 490.085938 C 395.066406 489.96875 395.359375 489.878906 395.664062 489.816406 C 395.96875 489.757812 396.277344 489.726562 396.585938 489.726562 C 396.898438 489.726562 397.203125 489.757812 397.507812 489.816406 C 397.8125 489.878906 398.109375 489.96875 398.394531 490.085938 C 398.679688 490.207031 398.953125 490.351562 399.210938 490.523438 C 399.46875 490.695312 399.707031 490.890625 399.929688 491.113281 C 400.148438 491.332031 400.34375 491.570312 400.515625 491.828125 C 400.6875 492.085938 400.832031 492.359375 400.953125 492.644531 C 401.070312 492.933594 401.160156 493.226562 401.222656 493.53125 C 401.28125 493.835938 401.3125 494.144531 401.3125 494.453125 Z M 401.3125 494.453125 " fill-opacity="1" fill-rule="nonzero"/></g><g clip-path="url(#970520c274)"><path fill="#ffffff" d="M 392.503906 534.984375 C 392.503906 535.292969 392.476562 535.601562 392.414062 535.90625 C 392.355469 536.210938 392.265625 536.507812 392.144531 536.792969 C 392.027344 537.082031 391.882812 537.351562 391.710938 537.609375 C 391.535156 537.867188 391.339844 538.109375 391.121094 538.328125 C 390.902344 538.546875 390.664062 538.742188 390.40625 538.914062 C 390.148438 539.085938 389.875 539.234375 389.589844 539.351562 C 389.300781 539.472656 389.007812 539.558594 388.703125 539.621094 C 388.398438 539.679688 388.089844 539.710938 387.78125 539.710938 C 387.46875 539.710938 387.164062 539.679688 386.859375 539.621094 C 386.554688 539.558594 386.257812 539.472656 385.972656 539.351562 C 385.683594 539.234375 385.414062 539.085938 385.15625 538.914062 C 384.898438 538.742188 384.660156 538.546875 384.4375 538.328125 C 384.21875 538.109375 384.023438 537.867188 383.851562 537.609375 C 383.679688 537.351562 383.535156 537.082031 383.414062 536.792969 C 383.296875 536.507812 383.207031 536.210938 383.144531 535.90625 C 383.085938 535.601562 383.054688 535.292969 383.054688 534.984375 C 383.054688 534.671875 383.085938 534.367188 383.144531 534.0625 C 383.207031 533.757812 383.296875 533.460938 383.414062 533.175781 C 383.535156 532.886719 383.679688 532.617188 383.851562 532.355469 C 384.023438 532.097656 384.21875 531.859375 384.4375 531.640625 C 384.660156 531.421875 384.898438 531.226562 385.15625 531.054688 C 385.414062 530.878906 385.683594 530.734375 385.972656 530.617188 C 386.257812 530.496094 386.554688 530.40625 386.859375 530.347656 C 387.164062 530.285156 387.46875 530.257812 387.78125 530.257812 C 388.089844 530.257812 388.398438 530.285156 388.703125 530.347656 C 389.007812 530.40625 389.300781 530.496094 389.589844 530.617188 C 389.875 530.734375 390.148438 530.878906 390.40625 531.054688 C 390.664062 531.226562 390.902344 531.421875 391.121094 531.640625 C 391.339844 531.859375 391.535156 532.097656 391.710938 532.355469 C 391.882812 532.617188 392.027344 532.886719 392.144531 533.175781 C 392.265625 533.460938 392.355469 533.757812 392.414062 534.0625 C 392.476562 534.367188 392.503906 534.671875 392.503906 534.984375 Z M 392.503906 534.984375 " fill-opacity="1" fill-rule="nonzero"/></g><g clip-path="url(#6c13aedf2d)"><path fill="#ffffff" d="M 399.457031 563.007812 C 399.457031 563.320312 399.429688 563.628906 399.367188 563.929688 C 399.308594 564.234375 399.21875 564.53125 399.097656 564.820312 C 398.980469 565.105469 398.835938 565.378906 398.660156 565.636719 C 398.488281 565.894531 398.292969 566.132812 398.074219 566.351562 C 397.855469 566.570312 397.617188 566.769531 397.359375 566.941406 C 397.101562 567.113281 396.828125 567.257812 396.542969 567.378906 C 396.253906 567.496094 395.960938 567.585938 395.65625 567.644531 C 395.351562 567.707031 395.042969 567.738281 394.734375 567.738281 C 394.421875 567.738281 394.117188 567.707031 393.8125 567.644531 C 393.507812 567.585938 393.210938 567.496094 392.925781 567.378906 C 392.636719 567.257812 392.367188 567.113281 392.109375 566.941406 C 391.851562 566.769531 391.609375 566.570312 391.390625 566.351562 C 391.171875 566.132812 390.976562 565.894531 390.804688 565.636719 C 390.632812 565.378906 390.484375 565.105469 390.367188 564.820312 C 390.25 564.53125 390.160156 564.234375 390.097656 563.929688 C 390.039062 563.628906 390.007812 563.320312 390.007812 563.007812 C 390.007812 562.699219 390.039062 562.390625 390.097656 562.085938 C 390.160156 561.78125 390.25 561.488281 390.367188 561.199219 C 390.484375 560.914062 390.632812 560.640625 390.804688 560.382812 C 390.976562 560.125 391.171875 559.886719 391.390625 559.667969 C 391.609375 559.445312 391.851562 559.25 392.109375 559.078125 C 392.367188 558.90625 392.636719 558.761719 392.925781 558.640625 C 393.210938 558.523438 393.507812 558.433594 393.8125 558.371094 C 394.117188 558.3125 394.421875 558.28125 394.734375 558.28125 C 395.042969 558.28125 395.351562 558.3125 395.65625 558.371094 C 395.960938 558.433594 396.253906 558.523438 396.542969 558.640625 C 396.828125 558.761719 397.101562 558.90625 397.359375 559.078125 C 397.617188 559.25 397.855469 559.445312 398.074219 559.667969 C 398.292969 559.886719 398.488281 560.125 398.660156 560.382812 C 398.835938 560.640625 398.980469 560.914062 399.097656 561.199219 C 399.21875 561.488281 399.308594 561.78125 399.367188 562.085938 C 399.429688 562.390625 399.457031 562.699219 399.457031 563.007812 Z M 399.457031 563.007812 " fill-opacity="1" fill-rule="nonzero"/></g><g clip-path="url(#df76d6eab0)"><path fill="#ffffff" d="M 390.292969 591.949219 C 390.292969 592.261719 390.265625 592.566406 390.203125 592.871094 C 390.144531 593.175781 390.054688 593.472656 389.933594 593.757812 C 389.816406 594.046875 389.671875 594.316406 389.496094 594.578125 C 389.324219 594.835938 389.128906 595.074219 388.910156 595.292969 C 388.691406 595.511719 388.453125 595.707031 388.195312 595.878906 C 387.9375 596.054688 387.664062 596.199219 387.378906 596.316406 C 387.089844 596.4375 386.796875 596.527344 386.492188 596.585938 C 386.1875 596.648438 385.878906 596.675781 385.570312 596.675781 C 385.257812 596.675781 384.953125 596.648438 384.648438 596.585938 C 384.34375 596.527344 384.046875 596.4375 383.761719 596.316406 C 383.472656 596.199219 383.203125 596.054688 382.945312 595.878906 C 382.6875 595.707031 382.445312 595.511719 382.226562 595.292969 C 382.007812 595.074219 381.8125 594.835938 381.640625 594.578125 C 381.46875 594.316406 381.320312 594.046875 381.203125 593.757812 C 381.085938 593.472656 380.996094 593.175781 380.933594 592.871094 C 380.875 592.566406 380.84375 592.261719 380.84375 591.949219 C 380.84375 591.640625 380.875 591.332031 380.933594 591.027344 C 380.996094 590.722656 381.085938 590.425781 381.203125 590.140625 C 381.320312 589.855469 381.46875 589.582031 381.640625 589.324219 C 381.8125 589.066406 382.007812 588.824219 382.226562 588.605469 C 382.445312 588.386719 382.6875 588.191406 382.945312 588.019531 C 383.203125 587.847656 383.472656 587.699219 383.761719 587.582031 C 384.046875 587.460938 384.34375 587.375 384.648438 587.3125 C 384.953125 587.253906 385.257812 587.222656 385.570312 587.222656 C 385.878906 587.222656 386.1875 587.253906 386.492188 587.3125 C 386.796875 587.375 387.089844 587.460938 387.378906 587.582031 C 387.664062 587.699219 387.9375 587.847656 388.195312 588.019531 C 388.453125 588.191406 388.691406 588.386719 388.910156 588.605469 C 389.128906 588.824219 389.324219 589.066406 389.496094 589.324219 C 389.671875 589.582031 389.816406 589.855469 389.933594 590.140625 C 390.054688 590.425781 390.144531 590.722656 390.203125 591.027344 C 390.265625 591.332031 390.292969 591.640625 390.292969 591.949219 Z M 390.292969 591.949219 " fill-opacity="1" fill-rule="nonzero"/></g><g clip-path="url(#2ad3140ec1)"><path fill="#ffc9cb" d="M 325.453125 311.976562 C 277.675781 310.027344 242.570312 308.839844 194.792969 306.890625 C 191.15625 306.738281 186.996094 306.316406 184.90625 303.347656 C 183.210938 301.023438 183.503906 297.839844 183.832031 294.953125 L 190.371094 237.644531 C 190.710938 234.683594 191.164062 231.457031 193.34375 229.414062 C 195.84375 227.023438 199.710938 227.097656 203.097656 227.273438 L 266.738281 230.550781 L 331.785156 233.910156 C 421.996094 238.558594 512.210938 243.214844 602.367188 248.929688 C 610.207031 249.421875 619.246094 250.601562 623.4375 257.246094 C 626.476562 262.023438 625.910156 268.207031 625.242188 273.859375 C 623.335938 289.894531 621.429688 305.933594 619.523438 321.972656 C 619.109375 325.476562 619.777344 330.339844 616.707031 332.066406 C 607.742188 337.105469 596.230469 334.972656 584.960938 332.375 C 502.886719 313.535156 413.539062 323.3125 325.453125 311.976562 " fill-opacity="1" fill-rule="nonzero"/></g></svg>