<svg xmlns="http://www.w3.org/2000/svg" xmlns:xlink="http://www.w3.org/1999/xlink" width="1080" zoomAndPan="magnify" viewBox="0 0 810 809.999993" height="1080" preserveAspectRatio="xMidYMid meet" version="1.0"><defs><clipPath id="b4b5827d44"><path d="M 245 262 L 564 262 L 564 548.132812 L 245 548.132812 Z M 245 262 " clip-rule="nonzero"/></clipPath></defs><g clip-path="url(#b4b5827d44)"><path fill="#e01073" d="M 445.59375 393.964844 C 452.984375 399.746094 460.289062 405.617188 467.757812 411.273438 C 491.03125 429.007812 511.964844 449.171875 530.554688 471.757812 C 541.46875 484.949219 548.425781 499.636719 546.3125 517.542969 C 546.152344 519.332031 545.824219 521.089844 545.328125 522.8125 C 544.828125 524.539062 544.171875 526.203125 543.351562 527.800781 C 542.53125 529.398438 541.566406 530.902344 540.457031 532.316406 C 539.347656 533.726562 538.113281 535.019531 536.753906 536.195312 C 528.203125 543.65625 518.347656 548.019531 506.824219 548.035156 C 497.519531 548.027344 488.332031 546.976562 479.269531 544.878906 C 470.203125 542.777344 461.492188 539.683594 453.132812 535.597656 C 426.015625 522.578125 402.109375 504.511719 377.941406 487.101562 C 335.464844 456.402344 297.609375 420.5 261.132812 383.070312 C 257.972656 379.828125 254.648438 376.730469 251.339844 373.632812 C 243.695312 366.445312 243.410156 360.414062 251.675781 353.851562 C 259.9375 347.285156 268.4375 340.621094 277.808594 335.867188 C 298.652344 325.25 319.648438 314.628906 341.414062 306.164062 C 372.054688 294.238281 403.441406 284.25 434.53125 273.484375 C 452.476562 267.265625 470.832031 263.050781 489.921875 262.292969 C 498.28125 261.9375 506.550781 262.617188 514.738281 264.332031 C 522.925781 266.046875 530.773438 268.746094 538.285156 272.425781 C 542.71875 274.578125 546.820312 277.246094 550.578125 280.433594 C 562.339844 290.46875 566.410156 302.71875 561.617188 318 C 556.378906 334.738281 545.851562 347.035156 531.75 356.773438 C 517.289062 366.71875 501.359375 373.347656 484.382812 378.011719 C 471.402344 381.566406 458.820312 386.578125 446.066406 390.941406 Z M 445.59375 393.964844 " fill-opacity="1" fill-rule="nonzero"/></g></svg>